sample.ufo
<glyph name="diKasratan" format="1">
  <advance width="0.8231707317072505"/>
  <unicode hex="064D"/>
  <note>
    uni064D
  </note>
  <outline>
    <contour>
      <point x="-85.0" y="-204.9878048780488" type="curve"/>
      <point x="63.0" y="-120.98780487804879" type="line" smooth="yes"/>
      <point x="74.0" y="-114.98780487804879"/>
      <point x="80.0" y="-100.98780487804879"/>
      <point x="80.0" y="-78.98780487804879" type="curve"/>
      <point x="-53.0" y="-155.9878048780488" type="line" smooth="yes"/>
      <point x="-81.0" y="-171.9878048780488"/>
      <point x="-85.0" y="-180.9878048780488"/>
    </contour>
    <contour>
      <point x="-83.17682926829275" y="-132.06097560975604" type="curve"/>
      <point x="64.82317073170725" y="-48.06097560975604" type="line" smooth="yes"/>
      <point x="75.82317073170725" y="-42.06097560975604"/>
      <point x="81.82317073170725" y="-28.060975609756042"/>
      <point x="81.82317073170725" y="-6.060975609756042" type="curve"/>
      <point x="-51.17682926829275" y="-83.06097560975604" type="line" smooth="yes"/>
      <point x="-79.17682926829275" y="-99.06097560975604"/>
      <point x="-83.17682926829275" y="-108.06097560975604"/>
    </contour>
    <contour>
      <point x="3.7519333729920845" y="0.9129982153478977" type="move" name="_markBelow"/>
    </contour>
    <contour>
      <point x="1.9259369422960617" y="0.9129982153478977" type="move" name="_markBelowDot"/>
    </contour>
  </outline>
</glyph>
<glyph name="diFatha" format="1">
  <unicode hex="064E"/>
  <note>
    uni064E
  </note>
  <outline>
    <contour>
      <point x="-92" y="5" type="curve"/>
      <point x="56" y="89" type="line" smooth="yes"/>
      <point x="67" y="95"/>
      <point x="73" y="109"/>
      <point x="73" y="131" type="curve"/>
      <point x="-60" y="54" type="line" smooth="yes"/>
      <point x="-88" y="38"/>
      <point x="-92" y="29"/>
    </contour>
    <contour>
      <point x="0.020388139736155608" y="0.31974124017597205" type="move" name="_markAbove"/>
    </contour>
    <contour>
      <point x="0.0518292682925221" y="-0.12500000000022737" type="move" name="_markAboveDot"/>
    </contour>
    <contour>
      <point x="-31.207317073170657" y="133.0274390243901" type="move" name="markAbove"/>
    </contour>
  </outline>
</glyph>
<glyph name="dig0" format="1">
  <advance width="355"/>
  <unicode hex="0660"/>
  <note>
    uni0660
  </note>
  <outline>
    <contour>
      <point x="104.18902439024396" y="141.90853658536594"/>
      <point x="120.18902439024396" y="126.90853658536594"/>
      <point x="151.18902439024396" y="101.90853658536594" type="curve" smooth="yes"/>
      <point x="196.18902439024396" y="64.90853658536594" type="line"/>
      <point x="261.18902439024396" y="173.90853658536594" type="line"/>
      <point x="215.18902439024396" y="212.90853658536594" type="line"/>
      <point x="208.18902439024396" y="217.90853658536594"/>
      <point x="201.18902439024396" y="224.90853658536594"/>
      <point x="193.18902439024396" y="231.90853658536594" type="curve"/>
      <point x="184.18902439024396" y="238.90853658536594"/>
      <point x="174.18902439024396" y="246.90853658536594"/>
      <point x="161.18902439024396" y="254.90853658536594" type="curve"/>
      <point x="125.18902439024396" y="194.90853658536594"/>
      <point x="105.18902439024396" y="158.90853658536594"/>
      <point x="101.18902439024396" y="145.90853658536594" type="curve"/>
    </contour>
  </outline>
</glyph>
<glyph name="dig3" format="1">
  <advance width="381"/>
  <unicode hex="0663"/>
  <note>
    uni0663
  </note>
  <outline>
    <contour>
      <point x="332" y="521"/>
      <point x="327" y="513"/>
      <point x="326" y="509" type="curve"/>
      <point x="325" y="504"/>
      <point x="324" y="499"/>
      <point x="324" y="492" type="curve" smooth="yes"/>
      <point x="324" y="483"/>
      <point x="321" y="474"/>
      <point x="315" y="466" type="curve"/>
      <point x="299" y="457" type="line"/>
      <point x="293" y="454" type="line"/>
      <point x="286" y="456" type="line"/>
      <point x="273" y="464"/>
      <point x="265" y="474"/>
      <point x="261" y="486" type="curve"/>
      <point x="252" y="524" type="line"/>
      <point x="250" y="531"/>
      <point x="247" y="534"/>
      <point x="242" y="534" type="curve" smooth="yes"/>
      <point x="237" y="534"/>
      <point x="234" y="531"/>
      <point x="233" y="525" type="curve"/>
      <point x="220" y="474" type="line"/>
      <point x="202" y="457"/>
      <point x="190" y="448"/>
      <point x="184" y="448" type="curve" smooth="yes"/>
      <point x="168" y="448"/>
      <point x="152" y="457"/>
      <point x="135" y="476" type="curve"/>
      <point x="115" y="506" type="line"/>
      <point x="99" y="534" type="line"/>
      <point x="95" y="531"/>
      <point x="90" y="525"/>
      <point x="84" y="515" type="curve" smooth="yes"/>
      <point x="77" y="504"/>
      <point x="70" y="489"/>
      <point x="61" y="468" type="curve" smooth="yes"/>
      <point x="36" y="412" type="line"/>
      <point x="62" y="376" type="line"/>
      <point x="82" y="348" type="line"/>
      <point x="94" y="328"/>
      <point x="105" y="307"/>
      <point x="116" y="284" type="curve"/>
      <point x="131" y="259"/>
      <point x="152" y="195"/>
      <point x="156" y="174" type="curve"/>
      <point x="160" y="163" type="line"/>
      <point x="164" y="147" type="line"/>
      <point x="172" y="115" type="line"/>
      <point x="177" y="97" type="line"/>
      <point x="184" y="70" type="line"/>
      <point x="202" y="0" type="line"/>
      <point x="204" y="-1"/>
      <point x="206" y="0"/>
      <point x="208" y="1" type="curve"/>
      <point x="213" y="8" type="line"/>
      <point x="230" y="51"/>
      <point x="237" y="111"/>
      <point x="237" y="174" type="curve"/>
      <point x="235" y="203" type="line"/>
      <point x="230" y="246" type="line"/>
      <point x="222" y="283" type="line"/>
      <point x="218" y="297"/>
      <point x="213" y="310"/>
      <point x="208" y="321" type="curve"/>
      <point x="237" y="331" type="line"/>
      <point x="258" y="354" type="line"/>
      <point x="265" y="347"/>
      <point x="272" y="342"/>
      <point x="279" y="340" type="curve"/>
      <point x="293" y="337" type="line"/>
      <point x="301" y="337" type="line" smooth="yes"/>
      <point x="320" y="337"/>
      <point x="335" y="350"/>
      <point x="345" y="376" type="curve"/>
      <point x="352" y="404"/>
      <point x="356" y="430"/>
      <point x="356" y="454" type="curve"/>
      <point x="355" y="480" type="line"/>
      <point x="352" y="503" type="line"/>
      <point x="349" y="518"/>
      <point x="346" y="528"/>
      <point x="343" y="532" type="curve"/>
    </contour>
  </outline>
</glyph>
<glyph name="dig7" format="1">
  <advance width="428"/>
  <unicode hex="0667"/>
  <note>
    uni0667
  </note>
  <outline>
    <contour>
      <point x="349" y="534" type="line"/>
      <point x="323" y="520" type="line" smooth="yes"/>
      <point x="314" y="515"/>
      <point x="307" y="507"/>
      <point x="300" y="498" type="curve"/>
      <point x="281" y="465"/>
      <point x="265" y="437"/>
      <point x="254" y="415" type="curve"/>
      <point x="249" y="403" type="line"/>
      <point x="245" y="390" type="line"/>
      <point x="240" y="375" type="line"/>
      <point x="229" y="332" type="line"/>
      <point x="212" y="262" type="line"/>
      <point x="188" y="348" type="line"/>
      <point x="158" y="427" type="line"/>
      <point x="138" y="463" type="line"/>
      <point x="127" y="481" type="line"/>
      <point x="116" y="498" type="line"/>
      <point x="92" y="517"/>
      <point x="76" y="528"/>
      <point x="68" y="532" type="curve"/>
      <point x="57" y="517"/>
      <point x="40" y="402"/>
      <point x="40" y="378" type="curve"/>
      <point x="53" y="366" type="line"/>
      <point x="59" y="361"/>
      <point x="64" y="357"/>
      <point x="68" y="352" type="curve"/>
      <point x="85" y="337"/>
      <point x="104" y="301"/>
      <point x="127" y="246" type="curve"/>
      <point x="144" y="217"/>
      <point x="162" y="171"/>
      <point x="180" y="109" type="curve"/>
      <point x="188" y="85" type="line"/>
      <point x="198" y="50" type="line" smooth="yes"/>
      <point x="203" y="34"/>
      <point x="207" y="20"/>
      <point x="209" y="8" type="curve"/>
      <point x="217" y="-2" type="line"/>
      <point x="220" y="-5" type="line"/>
      <point x="225" y="-4"/>
      <point x="229" y="1"/>
      <point x="231" y="10" type="curve" smooth="yes"/>
      <point x="240" y="49" type="line"/>
      <point x="252" y="101" type="line"/>
      <point x="268" y="152" type="line"/>
      <point x="289" y="222" type="line"/>
      <point x="331" y="322" type="line"/>
      <point x="340" y="337" type="line"/>
      <point x="349" y="350" type="line"/>
      <point x="356" y="359" type="line" smooth="yes"/>
      <point x="365" y="370"/>
      <point x="373" y="377"/>
      <point x="381" y="382" type="curve"/>
      <point x="362" y="489" type="line"/>
    </contour>
  </outline>
</glyph>
<glyph name="arAin.fina" format="1">
  <advance width="396"/>
  <note>
    arAin.fina
  </note>
  <outline>
    <contour>
      <point x="274" y="180" type="line"/>
      <point x="266" y="182" type="line"/>
      <point x="258" y="186" type="line"/>
      <point x="253" y="192" type="line"/>
      <point x="261" y="199" type="line"/>
      <point x="265" y="203" type="line"/>
      <point x="274" y="207"/>
      <point x="275" y="207"/>
      <point x="283" y="207" type="curve"/>
      <point x="296" y="237" type="line"/>
      <point x="305" y="262" type="line"/>
      <point x="308" y="269"/>
      <point x="309" y="275"/>
      <point x="309" y="280" type="curve"/>
      <point x="310" y="289" type="line"/>
      <point x="310" y="296" type="line" smooth="yes"/>
      <point x="310" y="340"/>
      <point x="291" y="360"/>
      <point x="248" y="389" type="curve"/>
      <point x="212" y="406"/>
      <point x="185" y="415"/>
      <point x="167" y="415" type="curve"/>
      <point x="150" y="412" type="line"/>
      <point x="134" y="407" type="line"/>
      <point x="115" y="398"/>
      <point x="104" y="393"/>
      <point x="101" y="390" type="curve"/>
      <point x="57" y="325"/>
      <point x="65" y="337"/>
      <point x="49" y="249" type="curve"/>
      <point x="52" y="246"/>
      <point x="57" y="245"/>
      <point x="62" y="244" type="curve"/>
      <point x="75" y="240" type="line"/>
      <point x="105" y="233" type="line"/>
      <point x="116" y="227" type="line"/>
      <point x="125" y="217" type="line"/>
      <point x="64" y="144"/>
      <point x="19" y="55"/>
      <point x="19" y="-32" type="curve" smooth="yes"/>
      <point x="19" y="-82"/>
      <point x="23" y="-122"/>
      <point x="31" y="-151" type="curve"/>
      <point x="64" y="-240"/>
      <point x="110" y="-265"/>
      <point x="162" y="-276" type="curve" smooth="yes"/>
      <point x="184" y="-281" type="line"/>
      <point x="196" y="-281" type="line"/>
      <point x="237" y="-283" type="line"/>
      <point x="281" y="-270"/>
      <point x="365" y="-172"/>
      <point x="360" y="-152" type="curve"/>
      <point x="355" y="-151"/>
      <point x="350" y="-150"/>
      <point x="344" y="-150" type="curve"/>
      <point x="325" y="-149" type="line"/>
      <point x="230" y="-143" type="line"/>
      <point x="143" y="-130"/>
      <point x="80" y="-67"/>
      <point x="80" y="8" type="curve" smooth="yes"/>
      <point x="80" y="19"/>
      <point x="81" y="31"/>
      <point x="84" y="43" type="curve"/>
      <point x="99" y="77"/>
      <point x="109" y="96"/>
      <point x="113" y="100" type="curve"/>
      <point x="140" y="124" type="line"/>
      <point x="151" y="132" type="line"/>
      <point x="163" y="139" type="line"/>
      <point x="177" y="91" type="line"/>
      <point x="189" y="58" type="line"/>
      <point x="210" y="19"/>
      <point x="221" y="0"/>
      <point x="224" y="0" type="curve" smooth="yes"/>
      <point x="400" y="0" type="line"/>
      <point x="400" y="180" type="line"/>
    </contour>
    <contour>
      <point x="147.95731707317077" y="565.0579268292684" type="move" name="dotAbove"/>
    </contour>
    <contour>
      <point x="55.89939024390242" y="593.9298780487804" type="move" name="markAbove"/>
    </contour>
    <contour>
      <point x="105.80792682926813" y="-338.6310975609756" type="move" name="markBelow"/>
    </contour>
    <contour>
      <point x="203" y="-59" type="move" name="dotBelow"/>
    </contour>
  </outline>
</glyph>
<glyph name="arAlefShort.fina" format="1">
  <advance width="322"/>
  <note>
    arAlefShort.fina
  </note>
  <outline>
    <contour>
      <point x="164" y="180" type="line"/>
      <point x="162" y="240" type="line"/>
      <point x="160" y="294" type="line"/>
      <point x="158" y="319" type="line"/>
      <point x="157" y="354" type="line"/>
      <point x="152" y="406" type="line"/>
      <point x="152" y="418"/>
      <point x="151" y="430"/>
      <point x="148" y="443" type="curve"/>
      <point x="137" y="466" type="line"/>
      <point x="125" y="453" type="line"/>
      <point x="117" y="443" type="line"/>
      <point x="96" y="416" type="line"/>
      <point x="69" y="378" type="line" smooth="yes"/>
      <point x="63" y="370"/>
      <point x="59" y="363"/>
      <point x="56" y="358" type="curve"/>
      <point x="60" y="312" type="line" smooth="yes"/>
      <point x="61" y="303"/>
      <point x="62" y="291"/>
      <point x="62" y="277" type="curve" smooth="yes"/>
      <point x="62" y="271" type="line"/>
      <point x="62" y="265" type="line"/>
      <point x="71" y="162" type="line"/>
      <point x="74" y="68" type="line"/>
      <point x="76" y="12" type="line"/>
      <point x="77" y="0"/>
      <point x="82" y="0"/>
      <point x="98" y="0" type="curve" smooth="yes"/>
      <point x="325" y="0" type="line"/>
      <point x="325" y="180" type="line"/>
    </contour>
    <contour>
      <point x="97" y="505" type="move" name="hamzaAbove"/>
    </contour>
    <contour>
      <point x="88" y="572" type="move" name="markAbove"/>
    </contour>
    <contour>
      <point x="110" y="-45" type="move" name="hamzaBelow"/>
    </contour>
    <contour>
      <point x="108" y="-99.08536585365846" type="move" name="markBelow"/>
    </contour>
    <contour>
      <point x="110.44207317073165" y="-67.64024390243912" type="move" name="dotBelow"/>
    </contour>
    <contour>
      <point x="96.32012195121933" y="541.0792682926829" type="move" name="dotAbove"/>
    </contour>
  </outline>
</glyph>
<glyph name="arBeh.fina" format="1">
  <advance width="520"/>
  <note>
    arBeh.fina
  </note>
  <outline>
    <contour>
      <point x="515" y="180"/>
      <point x="514" y="180"/>
      <point x="508" y="180" type="curve"/>
      <point x="501" y="179"/>
      <point x="495" y="179"/>
      <point x="490" y="180" type="curve"/>
      <point x="478" y="181"/>
      <point x="469" y="186"/>
      <point x="469" y="201" type="curve" smooth="yes"/>
      <point x="469" y="210"/>
      <point x="470" y="220"/>
      <point x="472" y="230" type="curve"/>
      <point x="473" y="240"/>
      <point x="475" y="250"/>
      <point x="476" y="259" type="curve"/>
      <point x="480" y="286"/>
      <point x="481" y="315"/>
      <point x="481" y="343" type="curve" smooth="yes"/>
      <point x="481" y="350"/>
      <point x="480" y="358"/>
      <point x="479" y="365" type="curve"/>
      <point x="476" y="370"/>
      <point x="475" y="374"/>
      <point x="472" y="378" type="curve"/>
      <point x="447" y="349"/>
      <point x="420" y="317"/>
      <point x="401" y="282" type="curve"/>
      <point x="398" y="265"/>
      <point x="397" y="248"/>
      <point x="397" y="232" type="curve"/>
      <point x="396" y="215"/>
      <point x="395" y="198"/>
      <point x="393" y="180" type="curve"/>
      <point x="158" y="180" type="line" smooth="yes"/>
      <point x="133" y="180"/>
      <point x="112" y="190"/>
      <point x="98" y="206" type="curve" smooth="yes"/>
      <point x="84" y="222"/>
      <point x="75" y="244"/>
      <point x="75" y="269" type="curve" smooth="yes"/>
      <point x="75" y="309"/>
      <point x="80" y="348"/>
      <point x="87" y="388" type="curve"/>
      <point x="73" y="387" type="line"/>
      <point x="61" y="372"/>
      <point x="51" y="350"/>
      <point x="43" y="325" type="curve" smooth="yes"/>
      <point x="35" y="300"/>
      <point x="28" y="272"/>
      <point x="24" y="245" type="curve" smooth="yes"/>
      <point x="20" y="218"/>
      <point x="17" y="193"/>
      <point x="17" y="177" type="curve" smooth="yes"/>
      <point x="17" y="171"/>
      <point x="17" y="164"/>
      <point x="17" y="155" type="curve" smooth="yes"/>
      <point x="17" y="146"/>
      <point x="17" y="136"/>
      <point x="18" y="126" type="curve"/>
      <point x="19" y="106"/>
      <point x="21" y="86"/>
      <point x="25" y="77" type="curve" smooth="yes"/>
      <point x="45" y="29"/>
      <point x="82" y="0"/>
      <point x="135" y="0" type="curve" smooth="yes"/>
      <point x="375" y="0" type="line"/>
      <point x="376" y="1"/>
      <point x="377" y="3"/>
      <point x="379" y="6" type="curve"/>
      <point x="383" y="13"/>
      <point x="389" y="23"/>
      <point x="395" y="35" type="curve" smooth="yes"/>
      <point x="398" y="41"/>
      <point x="400" y="47"/>
      <point x="403" y="52" type="curve" smooth="yes"/>
      <point x="406" y="57"/>
      <point x="408" y="61"/>
      <point x="410" y="64" type="curve"/>
      <point x="411" y="67"/>
      <point x="412" y="69"/>
      <point x="412" y="70" type="curve"/>
      <point x="416" y="59"/>
      <point x="423" y="42"/>
      <point x="434" y="27" type="curve" smooth="yes"/>
      <point x="445" y="12"/>
      <point x="458" y="0"/>
      <point x="471" y="0" type="curve" smooth="yes"/>
      <point x="520" y="0" type="line"/>
      <point x="520" y="180" type="line"/>
    </contour>
    <contour>
      <point x="231.58536585365846" y="497.10365853658504" type="move" name="dotAbove"/>
    </contour>
    <contour>
      <point x="214.37195121951208" y="496.84756097560967" type="move" name="markAbove"/>
    </contour>
    <contour>
      <point x="239.5914634146343" y="-117.07926829268285" type="move" name="dotBelow"/>
    </contour>
    <contour>
      <point x="149.09756097560967" y="-96.23170731707319" type="move" name="markBelow"/>
    </contour>
  </outline>
</glyph>
<glyph name="arDal.isol" format="1">
  <advance width="308"/>
  <note>
    arDal.isol
  </note>
  <outline>
    <contour>
      <point x="286" y="343"/>
      <point x="210" y="447"/>
      <point x="161" y="458" type="curve"/>
      <point x="154" y="435" type="line"/>
      <point x="142" y="389" type="line" smooth="yes"/>
      <point x="132" y="352"/>
      <point x="126" y="326"/>
      <point x="124" y="312" type="curve"/>
      <point x="151" y="299"/>
      <point x="174" y="283"/>
      <point x="193" y="263" type="curve"/>
      <point x="217" y="233"/>
      <point x="231" y="205"/>
      <point x="236" y="180" type="curve"/>
      <point x="60" y="180" type="line"/>
      <point x="54" y="151" type="line"/>
      <point x="53" y="139" type="line"/>
      <point x="51" y="124"/>
      <point x="50" y="112"/>
      <point x="50" y="103" type="curve"/>
      <point x="45" y="56" type="line"/>
      <point x="44" y="45" type="line"/>
      <point x="44" y="35" type="line"/>
      <point x="44" y="9" type="line" smooth="yes"/>
      <point x="44" y="3"/>
      <point x="47" y="0"/>
      <point x="52" y="0" type="curve" smooth="yes"/>
      <point x="260" y="0" type="line" smooth="yes"/>
      <point x="266" y="0"/>
      <point x="272" y="6"/>
      <point x="278" y="17" type="curve"/>
      <point x="289" y="49" type="line"/>
      <point x="294" y="78" type="line"/>
      <point x="295" y="101" type="line"/>
      <point x="296" y="104"/>
      <point x="297" y="110"/>
      <point x="297" y="119" type="curve"/>
      <point x="298" y="137" type="line"/>
      <point x="298" y="143" type="line"/>
      <point x="298" y="149" type="line"/>
      <point x="298" y="156" type="line"/>
      <point x="298" y="165" type="line"/>
      <point x="296" y="200" type="line"/>
      <point x="295" y="234" type="line"/>
    </contour>
    <contour>
      <point x="156.30487804878067" y="603.5426829268292" type="move" name="dotAbove"/>
    </contour>
    <contour>
      <point x="54.670731707317145" y="634.9237804878048" type="move" name="markAbove"/>
    </contour>
    <contour>
      <point x="146.34756097560967" y="-142.43292682926835" type="move" name="markBelow"/>
    </contour>
    <contour>
      <point x="147.63414634146352" y="-100.17073170731692" type="move" name="dotBelow"/>
    </contour>
  </outline>
</glyph>
<glyph name="arHah.medi" format="1">
  <advance width="444"/>
  <note>
    arHah.medi
  </note>
  <outline>
    <contour>
      <point x="286" y="180" type="line"/>
      <point x="302" y="199"/>
      <point x="327" y="204"/>
      <point x="356" y="208" type="curve"/>
      <point x="383" y="208" type="line"/>
      <point x="419" y="323" type="line"/>
      <point x="402" y="323" type="line"/>
      <point x="373" y="326" type="line"/>
      <point x="323" y="335" type="line"/>
      <point x="303" y="340"/>
      <point x="282" y="349"/>
      <point x="259" y="360" type="curve" smooth="yes"/>
      <point x="173" y="404" type="line"/>
      <point x="168" y="407"/>
      <point x="163" y="408"/>
      <point x="160" y="408" type="curve" smooth="yes"/>
      <point x="147" y="408" type="line" smooth="yes"/>
      <point x="112" y="408"/>
      <point x="75" y="386"/>
      <point x="60" y="358" type="curve"/>
      <point x="29" y="310"/>
      <point x="28" y="257"/>
      <point x="28" y="221" type="curve"/>
      <point x="36" y="218" type="line"/>
      <point x="55" y="230" type="line"/>
      <point x="62" y="235"/>
      <point x="69" y="238"/>
      <point x="75" y="239" type="curve"/>
      <point x="88" y="242"/>
      <point x="101" y="244"/>
      <point x="116" y="244" type="curve"/>
      <point x="141" y="241" type="line"/>
      <point x="171" y="237" type="line"/>
      <point x="216" y="227" type="line"/>
      <point x="186" y="194" type="line"/>
      <point x="162" y="183" type="line"/>
      <point x="153" y="180" type="line"/>
      <point x="-3" y="180" type="line"/>
      <point x="-3" y="0" type="line"/>
      <point x="124" y="0" type="line"/>
      <point x="134" y="2" type="line"/>
      <point x="138" y="4" type="line"/>
      <point x="149" y="14" type="line"/>
      <point x="160" y="22"/>
      <point x="171" y="38"/>
      <point x="183" y="63" type="curve" smooth="yes"/>
      <point x="208" y="112" type="line" smooth="yes"/>
      <point x="217" y="129"/>
      <point x="225" y="140"/>
      <point x="232" y="146" type="curve"/>
      <point x="232" y="102" type="line"/>
      <point x="233" y="94" type="line"/>
      <point x="233" y="81" type="line"/>
      <point x="233" y="68" type="line"/>
      <point x="234" y="28" type="line" smooth="yes"/>
      <point x="234" y="9"/>
      <point x="236" y="0"/>
      <point x="241" y="0" type="curve" smooth="yes"/>
      <point x="447" y="0" type="line"/>
      <point x="447" y="180" type="line"/>
    </contour>
    <contour>
      <point x="120.07317073170725" y="540.1219512195123" type="move" name="dotAbove"/>
    </contour>
    <contour>
      <point x="161.96341463414637" y="576.2073170731705" type="move" name="markAbove"/>
    </contour>
    <contour>
      <point x="194.4878048780488" y="-105.41463414634154" type="move" name="dotBelow"/>
    </contour>
    <contour>
      <point x="185.95121951219517" y="-136.8445121951222" type="move" name="markBelow"/>
    </contour>
    <contour>
      <point x="205" y="569" type="move" name="hamzaAbove"/>
    </contour>
  </outline>
</glyph>
<glyph name="arHehDo.isol" format="1">
  <advance width="518"/>
  <note>
    arHehDo.isol
  </note>
  <outline>
    <contour>
      <point x="400" y="171" type="line"/>
      <point x="386" y="172" type="line"/>
      <point x="373" y="175" type="line"/>
      <point x="361" y="183" type="line"/>
      <point x="357" y="186" type="line"/>
      <point x="354" y="196" type="line"/>
      <point x="354" y="207" type="line" smooth="yes"/>
      <point x="354" y="220"/>
      <point x="359" y="230"/>
      <point x="369" y="237" type="curve"/>
      <point x="370" y="238"/>
      <point x="372" y="239"/>
      <point x="375" y="239" type="curve" smooth="yes"/>
      <point x="392" y="239"/>
      <point x="417" y="193"/>
      <point x="420" y="172" type="curve"/>
      <point x="414" y="171" type="line"/>
    </contour>
    <contour>
      <point x="298" y="231"/>
      <point x="291" y="221"/>
      <point x="278" y="208" type="curve" smooth="yes"/>
      <point x="262" y="192" type="line"/>
      <point x="255" y="187" type="line"/>
      <point x="244" y="187"/>
      <point x="207" y="205"/>
      <point x="207" y="221" type="curve" smooth="yes"/>
      <point x="207" y="226"/>
      <point x="213" y="237"/>
      <point x="225" y="254" type="curve"/>
      <point x="249" y="275" type="line"/>
      <point x="257" y="282" type="line"/>
      <point x="270" y="282"/>
      <point x="281" y="276"/>
      <point x="290" y="264" type="curve"/>
      <point x="295" y="255"/>
      <point x="298" y="245"/>
      <point x="298" y="236" type="curve" smooth="yes"/>
    </contour>
    <contour>
      <point x="456" y="0"/>
      <point x="484" y="109"/>
      <point x="484" y="180" type="curve" smooth="yes"/>
      <point x="484" y="217"/>
      <point x="474" y="254"/>
      <point x="454" y="292" type="curve"/>
      <point x="414" y="359"/>
      <point x="361" y="409"/>
      <point x="313" y="450" type="curve" smooth="yes"/>
      <point x="257" y="498" type="line"/>
      <point x="250" y="483" type="line"/>
      <point x="242" y="463" type="line"/>
      <point x="233" y="438" type="line"/>
      <point x="229" y="423" type="line"/>
      <point x="227" y="415" type="line"/>
      <point x="225" y="403" type="line"/>
      <point x="225" y="393" type="line"/>
      <point x="224" y="372" type="line"/>
      <point x="215" y="365"/>
      <point x="202" y="342"/>
      <point x="185" y="302" type="curve" smooth="yes"/>
      <point x="164" y="255"/>
      <point x="153" y="214"/>
      <point x="153" y="179" type="curve"/>
      <point x="140" y="174"/>
      <point x="126" y="172"/>
      <point x="112" y="173" type="curve"/>
      <point x="101" y="172" type="line"/>
      <point x="83" y="174" type="line"/>
      <point x="67" y="179" type="line"/>
      <point x="55" y="187"/>
      <point x="48" y="193"/>
      <point x="47" y="197" type="curve"/>
      <point x="42" y="199" type="line"/>
      <point x="36" y="199" type="line"/>
      <point x="32" y="182"/>
      <point x="30" y="165"/>
      <point x="30" y="147" type="curve" smooth="yes"/>
      <point x="30" y="112"/>
      <point x="37" y="81"/>
      <point x="52" y="54" type="curve" smooth="yes"/>
      <point x="69" y="25"/>
      <point x="91" y="7"/>
      <point x="116" y="0" type="curve"/>
      <point x="405" y="0" type="line" smooth="yes"/>
    </contour>
    <contour>
      <point x="255" y="579" type="move" name="markAbove"/>
    </contour>
    <contour>
      <point x="174.1646341463413" y="-95.17987804878044" type="move" name="markBelow"/>
    </contour>
    <contour>
      <point x="255" y="600" type="move" name="dotAbove"/>
    </contour>
    <contour>
      <point x="214" y="-96" type="move" name="dotBelow"/>
    </contour>
  </outline>
</glyph>
<glyph name="arSeen.isol" format="1">
  <advance width="681"/>
  <note>
    arSeen.isol
  </note>
  <outline>
    <contour>
      <point x="663" y="218" type="line"/>
      <point x="663" y="224" type="line"/>
      <point x="663" y="231" type="line"/>
      <point x="663" y="239" type="line"/>
      <point x="663" y="248" type="line"/>
      <point x="663" y="258" type="line"/>
      <point x="663" y="270" type="line"/>
      <point x="662" y="312" type="line"/>
      <point x="661" y="325" type="line"/>
      <point x="659" y="333" type="line"/>
      <point x="652" y="329"/>
      <point x="643" y="320"/>
      <point x="633" y="305" type="curve"/>
      <point x="595" y="238" type="line"/>
      <point x="595" y="223" type="line"/>
      <point x="596" y="203" type="line"/>
      <point x="595" y="192" type="line"/>
      <point x="594" y="180" type="line"/>
      <point x="532" y="180" type="line"/>
      <point x="536" y="214" type="line"/>
      <point x="540" y="244" type="line"/>
      <point x="544" y="261" type="line"/>
      <point x="547" y="278" type="line"/>
      <point x="550" y="294" type="line"/>
      <point x="550" y="312" type="line"/>
      <point x="546" y="328" type="line"/>
      <point x="530" y="312" type="line"/>
      <point x="523" y="304" type="line" smooth="yes"/>
      <point x="517" y="297"/>
      <point x="512" y="290"/>
      <point x="509" y="284" type="curve"/>
      <point x="478" y="230" type="line"/>
      <point x="474" y="199" type="line"/>
      <point x="471" y="180" type="line"/>
      <point x="405" y="180" type="line"/>
      <point x="388" y="197"/>
      <point x="376" y="213"/>
      <point x="369" y="228" type="curve" smooth="yes"/>
      <point x="355" y="257" type="line"/>
      <point x="329" y="314" type="line"/>
      <point x="318" y="294" type="line"/>
      <point x="295" y="248" type="line"/>
      <point x="268" y="190" type="line"/>
      <point x="295" y="145"/>
      <point x="329" y="48"/>
      <point x="329" y="13" type="curve"/>
      <point x="327" y="1" type="line"/>
      <point x="310" y="-14"/>
      <point x="288" y="-26"/>
      <point x="264" y="-33" type="curve" smooth="yes"/>
      <point x="250" y="-37" type="line"/>
      <point x="242" y="-39" type="line"/>
      <point x="232" y="-42" type="line"/>
      <point x="221" y="-42" type="line"/>
      <point x="214" y="-43" type="line"/>
      <point x="203" y="-43" type="line"/>
      <point x="185" y="-44" type="line"/>
      <point x="179" y="-44" type="line"/>
      <point x="155" y="-42" type="line"/>
      <point x="130" y="-34"/>
      <point x="114" y="-23"/>
      <point x="105" y="-10" type="curve"/>
      <point x="100" y="-2"/>
      <point x="97" y="5"/>
      <point x="96" y="10" type="curve"/>
      <point x="95" y="23" type="line"/>
      <point x="94" y="38" type="line"/>
      <point x="94" y="47" type="line"/>
      <point x="97" y="68" type="line"/>
      <point x="106" y="109" type="line"/>
      <point x="113" y="137" type="line"/>
      <point x="125" y="163" type="line"/>
      <point x="144" y="202" type="line"/>
      <point x="138" y="205" type="line"/>
      <point x="133" y="204" type="line"/>
      <point x="85" y="169"/>
      <point x="15" y="28"/>
      <point x="15" y="-69" type="curve" smooth="yes"/>
      <point x="15" y="-138"/>
      <point x="57" y="-185"/>
      <point x="130" y="-198" type="curve" smooth="yes"/>
      <point x="144" y="-200" type="line"/>
      <point x="145" y="-201"/>
      <point x="148" y="-201"/>
      <point x="153" y="-201" type="curve" smooth="yes"/>
      <point x="161" y="-201" type="line" smooth="yes"/>
      <point x="191" y="-201"/>
      <point x="223" y="-194"/>
      <point x="256" y="-180" type="curve" smooth="yes"/>
      <point x="323" y="-153"/>
      <point x="344" y="-128"/>
      <point x="361" y="-76" type="curve" smooth="yes"/>
      <point x="367" y="-59" type="line"/>
      <point x="372" y="-40" type="line"/>
      <point x="376" y="-23" type="line"/>
      <point x="379" y="0" type="line"/>
      <point x="456" y="0" type="line" smooth="yes"/>
      <point x="460" y="0"/>
      <point x="464" y="2"/>
      <point x="467" y="6" type="curve" smooth="yes"/>
      <point x="478" y="21" type="line"/>
      <point x="494" y="3" type="line"/>
      <point x="498" y="1"/>
      <point x="501" y="0"/>
      <point x="502" y="0" type="curve" smooth="yes"/>
      <point x="618" y="0" type="line"/>
      <point x="623" y="1"/>
      <point x="627" y="3"/>
      <point x="630" y="7" type="curve"/>
      <point x="634" y="15" type="line"/>
      <point x="635" y="16"/>
      <point x="637" y="20"/>
      <point x="638" y="28" type="curve"/>
      <point x="657" y="115" type="line"/>
      <point x="660" y="126" type="line"/>
      <point x="661" y="128"/>
      <point x="661" y="130"/>
      <point x="661" y="133" type="curve" smooth="yes"/>
      <point x="661" y="139" type="line"/>
      <point x="662" y="148" type="line"/>
      <point x="662" y="161" type="line"/>
      <point x="662" y="177" type="line"/>
      <point x="662" y="197" type="line"/>
    </contour>
    <contour>
      <point x="483.76219512195144" y="463.6280487804879" type="move" name="dotAbove"/>
    </contour>
    <contour>
      <point x="176.22560975609758" y="411.6402439024391" type="move" name="markAbove"/>
    </contour>
    <contour>
      <point x="113.53048780487802" y="-280.55182926829275" type="move" name="markBelow"/>
    </contour>
    <contour>
      <point x="469" y="-67" type="move" name="dotBelow"/>
    </contour>
  </outline>
</glyph>
<glyph name="di2Dot.below" format="1">
  <note>
    ar2Dot.below
  </note>
  <outline>
    <contour>
      <point x="121" y="35"/>
      <point x="114" y="40"/>
      <point x="104" y="48" type="curve" smooth="yes"/>
      <point x="91" y="59"/>
      <point x="77" y="69"/>
      <point x="68" y="82" type="curve"/>
      <point x="45" y="57" type="line"/>
      <point x="31" y="40" type="line"/>
      <point x="11" y="14" type="line"/>
      <point x="-20" y="36" type="line"/>
      <point x="-53" y="63"/>
      <point x="-71" y="79"/>
      <point x="-72" y="82" type="curve"/>
      <point x="-108" y="40" type="line" smooth="yes"/>
      <point x="-129" y="16"/>
      <point x="-142" y="-2"/>
      <point x="-147" y="-15" type="curve"/>
      <point x="-134" y="-27" type="line"/>
      <point x="-116" y="-41" type="line"/>
      <point x="-90" y="-59" type="line"/>
      <point x="-51" y="-83" type="line"/>
      <point x="-30" y="-59" type="line"/>
      <point x="0" y="-22" type="line"/>
      <point x="11" y="-32"/>
      <point x="29" y="-45"/>
      <point x="55" y="-62" type="curve" smooth="yes"/>
      <point x="88" y="-83" type="line"/>
      <point x="129" y="-34" type="line"/>
      <point x="162" y="7" type="line"/>
      <point x="124" y="33" type="line" smooth="yes"/>
    </contour>
    <contour>
      <point x="-1" y="3" type="move" name="_dotBelow"/>
    </contour>
    <contour>
      <point x="-20.809451219512084" y="-140.35823170731692" type="move" name="markBelowDot"/>
    </contour>
  </outline>
</glyph>
<glyph name="diHamza" format="1">
  <note>
    arHamza.above
  </note>
  <outline>
    <contour>
      <point x="10" y="100" type="line"/>
      <point x="-10" y="110"/>
      <point x="-21" y="116"/>
      <point x="-22" y="117" type="curve"/>
      <point x="-16" y="125" type="line"/>
      <point x="-15" y="126"/>
      <point x="-14" y="127"/>
      <point x="-12" y="128" type="curve"/>
      <point x="0" y="130" type="line"/>
      <point x="8" y="128" type="line"/>
      <point x="18" y="122" type="line"/>
      <point x="31" y="110" type="line"/>
      <point x="41" y="129" type="line"/>
      <point x="51" y="150" type="line"/>
      <point x="46" y="170" type="line"/>
      <point x="42" y="178"/>
      <point x="37" y="183"/>
      <point x="30" y="185" type="curve"/>
      <point x="20" y="187" type="line"/>
      <point x="13" y="186" type="line"/>
      <point x="6" y="184" type="line"/>
      <point x="-7" y="176" type="line"/>
      <point x="-18" y="166" type="line"/>
      <point x="-27" y="153" type="line"/>
      <point x="-31" y="150"/>
      <point x="-34" y="147"/>
      <point x="-36" y="142" type="curve" smooth="yes"/>
      <point x="-45" y="121" type="line"/>
      <point x="-49" y="107" type="line"/>
      <point x="-55" y="83" type="line"/>
      <point x="-57" y="71" type="line"/>
      <point x="-57" y="59" type="line" smooth="yes"/>
      <point x="-57" y="44"/>
      <point x="-53" y="37"/>
      <point x="-41" y="32" type="curve"/>
      <point x="-33" y="28" type="line"/>
      <point x="-23" y="25" type="line"/>
      <point x="-31" y="21"/>
      <point x="-38" y="13"/>
      <point x="-45" y="1" type="curve"/>
      <point x="-52" y="-16"/>
      <point x="-56" y="-28"/>
      <point x="-56" y="-35" type="curve"/>
      <point x="-54" y="-38" type="line"/>
      <point x="-31" y="-16"/>
      <point x="-15" y="-3"/>
      <point x="-6" y="2" type="curve" smooth="yes"/>
      <point x="5" y="8" type="line"/>
      <point x="7" y="9"/>
      <point x="10" y="11"/>
      <point x="15" y="12" type="curve"/>
      <point x="41" y="19" type="line"/>
      <point x="49" y="19" type="line"/>
      <point x="58" y="42" type="line"/>
      <point x="62" y="50" type="line"/>
      <point x="64" y="61" type="line"/>
      <point x="73" y="94" type="line"/>
      <point x="30" y="96" type="line"/>
    </contour>
    <contour>
      <point x="0" y="1" type="move" name="_hamzaAbove"/>
    </contour>
    <contour>
      <point x="-20.960365853658573" y="192.39481707317054" type="move" name="markAbove"/>
    </contour>
  </outline>
</glyph>
<glyph name="legBE.fina" format="1">
  <advance width="790"/>
  <note>
    arBE.fina
  </note>
  <outline>
    <contour>
      <point x="723" y="180" type="line"/>
      <point x="717" y="181"/>
      <point x="713" y="185"/>
      <point x="711" y="192" type="curve"/>
      <point x="708" y="208" type="line"/>
      <point x="708" y="222" type="line"/>
      <point x="708" y="253" type="line"/>
      <point x="708" y="282" type="line"/>
      <point x="709" y="317" type="line"/>
      <point x="709" y="346" type="line"/>
      <point x="705" y="367" type="line"/>
      <point x="697" y="383" type="line"/>
      <point x="682" y="370"/>
      <point x="666" y="352"/>
      <point x="648" y="329" type="curve" smooth="yes"/>
      <point x="613" y="284" type="line"/>
      <point x="614" y="222" type="line"/>
      <point x="615" y="196" type="line"/>
      <point x="619" y="180" type="line"/>
      <point x="502" y="180" type="line"/>
      <point x="275" y="180" type="line"/>
      <point x="262" y="167"/>
      <point x="227" y="79"/>
      <point x="219" y="38" type="curve"/>
      <point x="271" y="30" type="line"/>
      <point x="300" y="25" type="line"/>
      <point x="318" y="23" type="line"/>
      <point x="345" y="18"/>
      <point x="367" y="-4"/>
      <point x="371" y="-29" type="curve"/>
      <point x="364" y="-35"/>
      <point x="346" y="-40"/>
      <point x="316" y="-43" type="curve"/>
      <point x="305" y="-46" type="line"/>
      <point x="291" y="-47" type="line"/>
      <point x="271" y="-49" type="line"/>
      <point x="225" y="-50" type="line" smooth="yes"/>
      <point x="153" y="-50"/>
      <point x="108" y="-6"/>
      <point x="108" y="59" type="curve" smooth="yes"/>
      <point x="108" y="120"/>
      <point x="119" y="168"/>
      <point x="167" y="243" type="curve"/>
      <point x="163" y="253" type="line"/>
      <point x="145" y="241"/>
      <point x="125" y="221"/>
      <point x="104" y="194" type="curve" smooth="yes"/>
      <point x="48" y="119"/>
      <point x="17" y="48"/>
      <point x="17" y="-28" type="curve" smooth="yes"/>
      <point x="17" y="-129"/>
      <point x="72" y="-189"/>
      <point x="197" y="-189" type="curve" smooth="yes"/>
      <point x="208" y="-189"/>
      <point x="223" y="-187"/>
      <point x="244" y="-183" type="curve" smooth="yes"/>
      <point x="284" y="-175"/>
      <point x="359" y="-151"/>
      <point x="376" y="-135" type="curve"/>
      <point x="408" y="-98"/>
      <point x="439" y="-31"/>
      <point x="448" y="0" type="curve"/>
      <point x="502" y="0" type="line"/>
      <point x="598" y="0" type="line"/>
      <point x="619" y="39" type="line"/>
      <point x="630" y="65" type="line"/>
      <point x="640" y="41" type="line"/>
      <point x="647" y="28" type="line"/>
      <point x="655" y="18" type="line"/>
      <point x="662" y="11"/>
      <point x="667" y="6"/>
      <point x="672" y="3" type="curve"/>
      <point x="684" y="0" type="line"/>
      <point x="697" y="0" type="line"/>
      <point x="803" y="0" type="line"/>
      <point x="803" y="180" type="line"/>
    </contour>
  </outline>
</glyph>
<glyph name="legBE.isol" format="1">
  <advance width="668"/>
  <note>
    arBE.isol
  </note>
  <outline>
    <contour>
      <point x="619" y="43"/>
      <point x="634" y="84"/>
      <point x="643" y="126" type="curve" smooth="yes"/>
      <point x="652" y="168"/>
      <point x="657" y="211"/>
      <point x="657" y="258" type="curve" smooth="yes"/>
      <point x="657" y="271"/>
      <point x="653" y="294"/>
      <point x="646" y="319" type="curve"/>
      <point x="638" y="344"/>
      <point x="629" y="371"/>
      <point x="618" y="395" type="curve"/>
      <point x="606" y="418"/>
      <point x="593" y="435"/>
      <point x="581" y="442" type="curve"/>
      <point x="568" y="422"/>
      <point x="556" y="399"/>
      <point x="546" y="375" type="curve" smooth="yes"/>
      <point x="536" y="351"/>
      <point x="525" y="327"/>
      <point x="518" y="304" type="curve"/>
      <point x="522" y="297" type="line"/>
      <point x="531" y="286"/>
      <point x="545" y="266"/>
      <point x="557" y="246" type="curve" smooth="yes"/>
      <point x="569" y="225"/>
      <point x="579" y="206"/>
      <point x="579" y="194" type="curve" smooth="yes"/>
      <point x="579" y="189"/>
      <point x="578" y="185"/>
      <point x="575" y="180" type="curve"/>
      <point x="275" y="180" type="line"/>
      <point x="263" y="160"/>
      <point x="251" y="136"/>
      <point x="240" y="112" type="curve" smooth="yes"/>
      <point x="229" y="87"/>
      <point x="223" y="61"/>
      <point x="219" y="38" type="curve"/>
      <point x="226" y="37"/>
      <point x="235" y="36"/>
      <point x="245" y="35" type="curve" smooth="yes"/>
      <point x="255" y="34"/>
      <point x="265" y="33"/>
      <point x="276" y="32" type="curve"/>
      <point x="297" y="28"/>
      <point x="320" y="23"/>
      <point x="338" y="14" type="curve" smooth="yes"/>
      <point x="356" y="5"/>
      <point x="368" y="-9"/>
      <point x="371" y="-29" type="curve"/>
      <point x="320" y="-46"/>
      <point x="278" y="-50"/>
      <point x="225" y="-50" type="curve" smooth="yes"/>
      <point x="192" y="-50"/>
      <point x="162" y="-40"/>
      <point x="142" y="-21" type="curve" smooth="yes"/>
      <point x="121" y="-2"/>
      <point x="108" y="24"/>
      <point x="108" y="59" type="curve" smooth="yes"/>
      <point x="108" y="94"/>
      <point x="114" y="126"/>
      <point x="123" y="156" type="curve" smooth="yes"/>
      <point x="132" y="186"/>
      <point x="147" y="214"/>
      <point x="167" y="243" type="curve"/>
      <point x="163" y="253" type="line"/>
      <point x="136" y="237"/>
      <point x="111" y="210"/>
      <point x="90" y="179" type="curve" smooth="yes"/>
      <point x="69" y="147"/>
      <point x="50" y="111"/>
      <point x="37" y="75" type="curve" smooth="yes"/>
      <point x="24" y="38"/>
      <point x="17" y="3"/>
      <point x="17" y="-28" type="curve" smooth="yes"/>
      <point x="17" y="-77"/>
      <point x="32" y="-118"/>
      <point x="60" y="-146" type="curve" smooth="yes"/>
      <point x="88" y="-174"/>
      <point x="128" y="-189"/>
      <point x="177" y="-189" type="curve" smooth="yes"/>
      <point x="246" y="-189"/>
      <point x="304" y="-176"/>
      <point x="351" y="-146" type="curve" smooth="yes"/>
      <point x="398" y="-116"/>
      <point x="432" y="-69"/>
      <point x="448" y="0" type="curve"/>
      <point x="599" y="0" type="line"/>
    </contour>
  </outline>
</glyph>
<glyph name="legBG.init" format="1">
  <advance width="752"/>
  <note>
    arBG.init
  </note>
  <outline>
    <contour>
      <point x="688" y="266"/>
      <point x="686" y="285"/>
      <point x="681" y="306" type="curve"/>
      <point x="671" y="339" type="line"/>
      <point x="659" y="370" type="line" smooth="yes"/>
      <point x="642" y="411"/>
      <point x="626" y="435"/>
      <point x="612" y="442" type="curve"/>
      <point x="605" y="431"/>
      <point x="595" y="411"/>
      <point x="583" y="383" type="curve"/>
      <point x="572" y="360" type="line"/>
      <point x="560" y="333" type="line" smooth="yes"/>
      <point x="555" y="321"/>
      <point x="551" y="311"/>
      <point x="549" y="304" type="curve"/>
      <point x="577" y="265"/>
      <point x="593" y="241"/>
      <point x="596" y="233" type="curve"/>
      <point x="605" y="213" type="line"/>
      <point x="606" y="210"/>
      <point x="607" y="207"/>
      <point x="608" y="203" type="curve" smooth="yes"/>
      <point x="610" y="194" type="line"/>
      <point x="611" y="188" type="line"/>
      <point x="611" y="183"/>
      <point x="609" y="180"/>
      <point x="606" y="180" type="curve" smooth="yes"/>
      <point x="431" y="180" type="line"/>
      <point x="286" y="180" type="line"/>
      <point x="302" y="199"/>
      <point x="327" y="204"/>
      <point x="356" y="208" type="curve"/>
      <point x="383" y="208" type="line"/>
      <point x="419" y="323" type="line"/>
      <point x="402" y="323" type="line"/>
      <point x="373" y="326" type="line"/>
      <point x="323" y="335" type="line"/>
      <point x="303" y="340"/>
      <point x="282" y="349"/>
      <point x="259" y="360" type="curve" smooth="yes"/>
      <point x="173" y="404" type="line"/>
      <point x="168" y="407"/>
      <point x="163" y="408"/>
      <point x="160" y="408" type="curve" smooth="yes"/>
      <point x="147" y="408" type="line" smooth="yes"/>
      <point x="112" y="408"/>
      <point x="75" y="386"/>
      <point x="60" y="358" type="curve"/>
      <point x="29" y="310"/>
      <point x="28" y="264"/>
      <point x="28" y="221" type="curve"/>
      <point x="36" y="218" type="line"/>
      <point x="55" y="230" type="line"/>
      <point x="62" y="235"/>
      <point x="69" y="238"/>
      <point x="75" y="239" type="curve"/>
      <point x="88" y="242"/>
      <point x="101" y="244"/>
      <point x="116" y="244" type="curve"/>
      <point x="141" y="241" type="line"/>
      <point x="171" y="237" type="line"/>
      <point x="216" y="227" type="line"/>
      <point x="187" y="190"/>
      <point x="161" y="180"/>
      <point x="153" y="180" type="curve" smooth="yes"/>
      <point x="-3" y="180" type="line"/>
      <point x="-3" y="0" type="line"/>
      <point x="124" y="0" type="line"/>
      <point x="134" y="2" type="line"/>
      <point x="138" y="4" type="line"/>
      <point x="149" y="14" type="line"/>
      <point x="160" y="22"/>
      <point x="171" y="38"/>
      <point x="183" y="63" type="curve" smooth="yes"/>
      <point x="208" y="112" type="line" smooth="yes"/>
      <point x="217" y="129"/>
      <point x="225" y="140"/>
      <point x="232" y="146" type="curve"/>
      <point x="232" y="102" type="line"/>
      <point x="233" y="94" type="line"/>
      <point x="233" y="81" type="line"/>
      <point x="233" y="68" type="line"/>
      <point x="234" y="28" type="line" smooth="yes"/>
      <point x="234" y="9"/>
      <point x="236" y="0"/>
      <point x="241" y="0" type="curve" smooth="yes"/>
      <point x="437" y="0" type="line"/>
      <point x="631" y="0" type="line"/>
      <point x="648" y="42" type="line"/>
      <point x="663" y="83" type="line"/>
      <point x="669" y="104" type="line"/>
      <point x="674" y="119" type="line"/>
      <point x="677" y="134" type="line"/>
      <point x="679" y="139" type="line"/>
      <point x="679" y="147" type="line"/>
      <point x="685" y="198" type="line"/>
      <point x="688" y="248" type="line"/>
    </contour>
  </outline>
</glyph>
<glyph name="legBM.init" format="1">
  <advance width="623"/>
  <note>
    arBM.init
  </note>
  <outline>
    <contour>
      <point x="576" y="265"/>
      <point x="574" y="284"/>
      <point x="569" y="305" type="curve"/>
      <point x="559" y="338" type="line"/>
      <point x="547" y="369" type="line" smooth="yes"/>
      <point x="530" y="410"/>
      <point x="514" y="434"/>
      <point x="500" y="441" type="curve"/>
      <point x="493" y="430"/>
      <point x="483" y="410"/>
      <point x="471" y="382" type="curve"/>
      <point x="460" y="359" type="line"/>
      <point x="448" y="332" type="line" smooth="yes"/>
      <point x="443" y="320"/>
      <point x="439" y="310"/>
      <point x="437" y="303" type="curve"/>
      <point x="465" y="264"/>
      <point x="481" y="240"/>
      <point x="484" y="232" type="curve"/>
      <point x="493" y="212" type="line"/>
      <point x="495" y="209"/>
      <point x="496" y="206"/>
      <point x="497" y="202" type="curve" smooth="yes"/>
      <point x="499" y="193" type="line"/>
      <point x="499" y="187" type="line" smooth="yes"/>
      <point x="499" y="182"/>
      <point x="497" y="180"/>
      <point x="493" y="180" type="curve" smooth="yes"/>
      <point x="326" y="180" type="line"/>
      <point x="302" y="180" type="line"/>
      <point x="285" y="195"/>
      <point x="272" y="214"/>
      <point x="261" y="237" type="curve" smooth="yes"/>
      <point x="252" y="257" type="line"/>
      <point x="249" y="267" type="line"/>
      <point x="247" y="277" type="line"/>
      <point x="244" y="296"/>
      <point x="242" y="310"/>
      <point x="242" y="321" type="curve"/>
      <point x="243" y="336" type="line"/>
      <point x="242" y="345"/>
      <point x="228" y="355"/>
      <point x="217" y="355" type="curve" smooth="yes"/>
      <point x="211" y="355"/>
      <point x="205" y="354"/>
      <point x="198" y="353" type="curve"/>
      <point x="185" y="349" type="line" smooth="yes"/>
      <point x="173" y="345"/>
      <point x="161" y="340"/>
      <point x="150" y="333" type="curve" smooth="yes"/>
      <point x="99" y="301"/>
      <point x="73" y="250"/>
      <point x="64" y="219" type="curve" smooth="yes"/>
      <point x="54" y="180" type="line"/>
      <point x="-3" y="180" type="line"/>
      <point x="-3" y="0" type="line"/>
      <point x="15" y="0" type="line"/>
      <point x="25" y="2" type="line"/>
      <point x="30" y="5"/>
      <point x="34" y="9"/>
      <point x="38" y="15" type="curve"/>
      <point x="41" y="20"/>
      <point x="47" y="38"/>
      <point x="55" y="67" type="curve"/>
      <point x="58" y="76"/>
      <point x="62" y="82"/>
      <point x="67" y="83" type="curve"/>
      <point x="169" y="0" type="line"/>
      <point x="208" y="-30" type="line" smooth="yes"/>
      <point x="219" y="-38"/>
      <point x="229" y="-44"/>
      <point x="236" y="-47" type="curve"/>
      <point x="245" y="-37" type="line"/>
      <point x="247" y="-35"/>
      <point x="249" y="-31"/>
      <point x="250" y="-26" type="curve"/>
      <point x="253" y="-19"/>
      <point x="257" y="-11"/>
      <point x="260" y="0" type="curve"/>
      <point x="336" y="0" type="line"/>
      <point x="519" y="0" type="line"/>
      <point x="536" y="41" type="line"/>
      <point x="551" y="83" type="line"/>
      <point x="558" y="103" type="line"/>
      <point x="562" y="118" type="line"/>
      <point x="565" y="133" type="line"/>
      <point x="567" y="138" type="line"/>
      <point x="567" y="146" type="line"/>
      <point x="573" y="197" type="line"/>
      <point x="576" y="247" type="line"/>
    </contour>
    <contour>
      <point x="133" y="216" type="line"/>
      <point x="140" y="229"/>
      <point x="153" y="238"/>
      <point x="165" y="238" type="curve" smooth="yes"/>
      <point x="168" y="238"/>
      <point x="171" y="237"/>
      <point x="174" y="235" type="curve"/>
      <point x="179" y="231"/>
      <point x="183" y="223"/>
      <point x="186" y="211" type="curve"/>
      <point x="189" y="202" type="line"/>
      <point x="190" y="201"/>
      <point x="190" y="198"/>
      <point x="190" y="194" type="curve"/>
      <point x="191" y="185" type="line"/>
      <point x="191" y="178" type="line"/>
      <point x="167" y="193" type="line"/>
    </contour>
  </outline>
</glyph>
<glyph name="legBM.isol" format="1">
  <advance width="723"/>
  <note>
    arBM.isol
  </note>
  <outline>
    <contour>
      <point x="671" y="266"/>
      <point x="669" y="285"/>
      <point x="664" y="306" type="curve"/>
      <point x="654" y="339" type="line"/>
      <point x="643" y="370" type="line"/>
      <point x="625" y="411"/>
      <point x="609" y="435"/>
      <point x="596" y="442" type="curve"/>
      <point x="588" y="431"/>
      <point x="578" y="412"/>
      <point x="566" y="383" type="curve" smooth="yes"/>
      <point x="556" y="360" type="line"/>
      <point x="543" y="333" type="line"/>
      <point x="538" y="321"/>
      <point x="535" y="311"/>
      <point x="533" y="304" type="curve"/>
      <point x="560" y="265"/>
      <point x="576" y="242"/>
      <point x="580" y="233" type="curve"/>
      <point x="588" y="213" type="line"/>
      <point x="590" y="210"/>
      <point x="591" y="207"/>
      <point x="592" y="203" type="curve" smooth="yes"/>
      <point x="594" y="194" type="line"/>
      <point x="594" y="188" type="line" smooth="yes"/>
      <point x="594" y="183"/>
      <point x="593" y="180"/>
      <point x="590" y="180" type="curve" smooth="yes"/>
      <point x="425" y="179" type="line"/>
      <point x="387" y="179" type="line"/>
      <point x="362" y="200"/>
      <point x="351" y="230"/>
      <point x="343" y="286" type="curve" smooth="yes"/>
      <point x="334" y="357" type="line"/>
      <point x="334" y="363" type="line"/>
      <point x="334" y="373" type="line"/>
      <point x="335" y="381" type="line"/>
      <point x="335" y="388"/>
      <point x="334" y="392"/>
      <point x="331" y="395" type="curve" smooth="yes"/>
      <point x="330" y="396"/>
      <point x="328" y="396"/>
      <point x="323" y="396" type="curve"/>
      <point x="303" y="394" type="line"/>
      <point x="265" y="387" type="line"/>
      <point x="232" y="379"/>
      <point x="204" y="370"/>
      <point x="181" y="361" type="curve"/>
      <point x="113" y="329"/>
      <point x="86" y="310"/>
      <point x="54" y="225" type="curve"/>
      <point x="46" y="208"/>
      <point x="39" y="187"/>
      <point x="33" y="163" type="curve" smooth="yes"/>
      <point x="28" y="144" type="line"/>
      <point x="24" y="128" type="line"/>
      <point x="21" y="118" type="line"/>
      <point x="21" y="117"/>
      <point x="21" y="114"/>
      <point x="21" y="110" type="curve"/>
      <point x="19" y="95" type="line"/>
      <point x="24" y="42" type="line"/>
      <point x="35" y="-33" type="line"/>
      <point x="69" y="-229" type="line"/>
      <point x="90" y="-213"/>
      <point x="106" y="-163"/>
      <point x="117" y="-110" type="curve"/>
      <point x="118" y="-101" type="line"/>
      <point x="118" y="-94" type="line"/>
      <point x="115" y="-63" type="line"/>
      <point x="111" y="-26" type="line"/>
      <point x="100" y="64" type="line" smooth="yes"/>
      <point x="96" y="99"/>
      <point x="94" y="121"/>
      <point x="94" y="130" type="curve"/>
      <point x="95" y="144" type="line"/>
      <point x="100" y="171"/>
      <point x="136" y="195"/>
      <point x="157" y="199" type="curve"/>
      <point x="143" y="156" type="line"/>
      <point x="138" y="142" type="line"/>
      <point x="133" y="123" type="line"/>
      <point x="131" y="120"/>
      <point x="130" y="117"/>
      <point x="130" y="114" type="curve" smooth="yes"/>
      <point x="130" y="104" type="line"/>
      <point x="135" y="89"/>
      <point x="144" y="75"/>
      <point x="159" y="61" type="curve"/>
      <point x="178" y="45"/>
      <point x="200" y="30"/>
      <point x="223" y="15" type="curve" smooth="yes"/>
      <point x="254" y="-4" type="line"/>
      <point x="294" y="-25" type="line"/>
      <point x="344" y="-57" type="line"/>
      <point x="353" y="-50"/>
      <point x="360" y="-41"/>
      <point x="365" y="-32" type="curve"/>
      <point x="374" y="-13"/>
      <point x="380" y="-2"/>
      <point x="382" y="0" type="curve"/>
      <point x="425" y="0" type="line"/>
      <point x="614" y="0" type="line"/>
      <point x="631" y="42" type="line"/>
      <point x="646" y="83" type="line"/>
      <point x="653" y="104" type="line"/>
      <point x="657" y="119" type="line"/>
      <point x="661" y="134" type="line"/>
      <point x="663" y="139" type="line"/>
      <point x="663" y="147" type="line"/>
      <point x="668" y="198" type="line"/>
      <point x="671" y="248" type="line"/>
    </contour>
    <contour>
      <point x="248" y="193" type="line"/>
      <point x="231" y="205"/>
      <point x="221" y="213"/>
      <point x="217" y="218" type="curve"/>
      <point x="217" y="230"/>
      <point x="257" y="248"/>
      <point x="268" y="248" type="curve"/>
      <point x="272" y="246" type="line"/>
      <point x="284" y="199" type="line"/>
      <point x="290" y="169" type="line"/>
      <point x="273" y="178" type="line"/>
    </contour>
  </outline>
</glyph>
<glyph name="legBN.fina" format="1">
  <advance width="637"/>
  <note>
    arBN.fina
  </note>
  <outline>
    <contour>
      <point x="573" y="180" type="line" smooth="yes"/>
      <point x="568" y="180"/>
      <point x="563" y="185"/>
      <point x="560" y="195" type="curve"/>
      <point x="554" y="222" type="line"/>
      <point x="545" y="287" type="line"/>
      <point x="534" y="363" type="line"/>
      <point x="523" y="424" type="line"/>
      <point x="519" y="423"/>
      <point x="516" y="421"/>
      <point x="515" y="419" type="curve"/>
      <point x="491" y="358" type="line"/>
      <point x="479" y="330" type="line"/>
      <point x="470" y="314" type="line"/>
      <point x="457" y="295"/>
      <point x="434" y="288"/>
      <point x="411" y="288" type="curve"/>
      <point x="400" y="289" type="line"/>
      <point x="392" y="291" type="line"/>
      <point x="377" y="300"/>
      <point x="364" y="313"/>
      <point x="353" y="332" type="curve"/>
      <point x="352" y="333"/>
      <point x="346" y="344"/>
      <point x="333" y="365" type="curve"/>
      <point x="332" y="368"/>
      <point x="330" y="372"/>
      <point x="327" y="376" type="curve"/>
      <point x="326" y="374"/>
      <point x="315" y="352"/>
      <point x="296" y="311" type="curve" smooth="yes"/>
      <point x="269" y="252" type="line"/>
      <point x="279" y="234" type="line"/>
      <point x="283" y="224" type="line"/>
      <point x="289" y="211" type="line"/>
      <point x="290" y="210"/>
      <point x="292" y="204"/>
      <point x="294" y="194" type="curve"/>
      <point x="305" y="164" type="line"/>
      <point x="309" y="155"/>
      <point x="312" y="145"/>
      <point x="313" y="135" type="curve"/>
      <point x="318" y="117"/>
      <point x="321" y="105"/>
      <point x="322" y="98" type="curve"/>
      <point x="323" y="93"/>
      <point x="324" y="88"/>
      <point x="324" y="84" type="curve"/>
      <point x="325" y="72" type="line"/>
      <point x="317" y="32"/>
      <point x="248" y="1"/>
      <point x="181" y="1" type="curve" smooth="yes"/>
      <point x="167" y="1"/>
      <point x="153" y="2"/>
      <point x="140" y="5" type="curve"/>
      <point x="92" y="22"/>
      <point x="78" y="55"/>
      <point x="78" y="119" type="curve" smooth="yes"/>
      <point x="78" y="154"/>
      <point x="91" y="223"/>
      <point x="106" y="264" type="curve"/>
      <point x="103" y="267"/>
      <point x="96" y="264"/>
      <point x="92" y="260" type="curve"/>
      <point x="79" y="245"/>
      <point x="67" y="221"/>
      <point x="54" y="188" type="curve" smooth="yes"/>
      <point x="42" y="157" type="line"/>
      <point x="34" y="125" type="line"/>
      <point x="27" y="94" type="line" smooth="yes"/>
      <point x="26" y="90"/>
      <point x="25" y="86"/>
      <point x="25" y="82" type="curve"/>
      <point x="23" y="65" type="line"/>
      <point x="22" y="46"/>
      <point x="21" y="25"/>
      <point x="21" y="4" type="curve" smooth="yes"/>
      <point x="21" y="-10" type="line"/>
      <point x="23" y="-38" type="line"/>
      <point x="30" y="-77" type="line"/>
      <point x="47" y="-134"/>
      <point x="90" y="-158"/>
      <point x="111" y="-165" type="curve" smooth="yes"/>
      <point x="120" y="-168" type="line"/>
      <point x="125" y="-170" type="line"/>
      <point x="131" y="-172" type="line"/>
      <point x="140" y="-173" type="line"/>
      <point x="155" y="-174" type="line"/>
      <point x="169" y="-175" type="line"/>
      <point x="238" y="-175"/>
      <point x="309" y="-134"/>
      <point x="338" y="-85" type="curve"/>
      <point x="359" y="-44"/>
      <point x="372" y="-11"/>
      <point x="377" y="12" type="curve"/>
      <point x="386" y="39"/>
      <point x="390" y="72"/>
      <point x="390" y="128" type="curve"/>
      <point x="422" y="128"/>
      <point x="452" y="155"/>
      <point x="476" y="198" type="curve"/>
      <point x="490" y="111" type="line"/>
      <point x="501" y="69"/>
      <point x="508" y="43"/>
      <point x="511" y="33" type="curve"/>
      <point x="522" y="11"/>
      <point x="533" y="0"/>
      <point x="543" y="0" type="curve" smooth="yes"/>
      <point x="640" y="0" type="line"/>
      <point x="640" y="180" type="line"/>
    </contour>
  </outline>
</glyph>
<glyph name="legBR.fina" format="1">
  <advance width="568"/>
  <note>
    arBR.fina
  </note>
  <outline>
    <contour>
      <point x="482" y="180" type="line" smooth="yes"/>
      <point x="477" y="180"/>
      <point x="472" y="185"/>
      <point x="468" y="195" type="curve"/>
      <point x="462" y="222" type="line"/>
      <point x="454" y="287" type="line"/>
      <point x="443" y="363" type="line"/>
      <point x="432" y="424" type="line"/>
      <point x="427" y="423"/>
      <point x="425" y="421"/>
      <point x="424" y="419" type="curve"/>
      <point x="400" y="358" type="line"/>
      <point x="387" y="330" type="line"/>
      <point x="378" y="314" type="line"/>
      <point x="366" y="295"/>
      <point x="343" y="288"/>
      <point x="319" y="288" type="curve"/>
      <point x="309" y="289" type="line"/>
      <point x="301" y="291" type="line"/>
      <point x="286" y="299"/>
      <point x="274" y="310"/>
      <point x="265" y="324" type="curve"/>
      <point x="224" y="394" type="line"/>
      <point x="191" y="328" type="line"/>
      <point x="163" y="269" type="line"/>
      <point x="172" y="250" type="line"/>
      <point x="178" y="237" type="line"/>
      <point x="191" y="210" type="line" smooth="yes"/>
      <point x="202" y="186"/>
      <point x="209" y="171"/>
      <point x="211" y="164" type="curve"/>
      <point x="223" y="137"/>
      <point x="229" y="120"/>
      <point x="228" y="113" type="curve"/>
      <point x="216" y="77"/>
      <point x="189" y="49"/>
      <point x="170" y="33" type="curve" smooth="yes"/>
      <point x="133" y="0" type="line"/>
      <point x="117" y="-12"/>
      <point x="104" y="-20"/>
      <point x="93" y="-25" type="curve"/>
      <point x="87" y="-28"/>
      <point x="80" y="-30"/>
      <point x="72" y="-31" type="curve" smooth="yes"/>
      <point x="55" y="-33" type="line"/>
      <point x="44" y="-33" type="line"/>
      <point x="21" y="-32" type="line"/>
      <point x="0" y="-28" type="line" smooth="yes"/>
      <point x="-14" y="-25"/>
      <point x="-27" y="-20"/>
      <point x="-39" y="-13" type="curve"/>
      <point x="-42" y="-14"/>
      <point x="-44" y="-15"/>
      <point x="-46" y="-17" type="curve"/>
      <point x="-49" y="-21" type="line"/>
      <point x="-25" y="-68"/>
      <point x="104" y="-141"/>
      <point x="140" y="-141" type="curve" smooth="yes"/>
      <point x="163" y="-141"/>
      <point x="190" y="-126"/>
      <point x="203" y="-107" type="curve"/>
      <point x="224" y="-83"/>
      <point x="240" y="-59"/>
      <point x="253" y="-33" type="curve" smooth="yes"/>
      <point x="266" y="-7"/>
      <point x="268" y="-3"/>
      <point x="273" y="12" type="curve" smooth="yes"/>
      <point x="282" y="37" type="line"/>
      <point x="290" y="62" type="line"/>
      <point x="296" y="95" type="line"/>
      <point x="299" y="128" type="line"/>
      <point x="330" y="128"/>
      <point x="361" y="155"/>
      <point x="384" y="198" type="curve"/>
      <point x="399" y="111" type="line"/>
      <point x="410" y="69"/>
      <point x="417" y="43"/>
      <point x="420" y="33" type="curve"/>
      <point x="431" y="11"/>
      <point x="442" y="0"/>
      <point x="452" y="0" type="curve" smooth="yes"/>
      <point x="575" y="0" type="line"/>
      <point x="575" y="180" type="line"/>
    </contour>
  </outline>
</glyph>
<glyph name="legFE.isol" format="1">
  <advance width="668"/>
  <note>
    arFE.isol
  </note>
  <outline>
    <contour>
      <point x="611" y="421"/>
      <point x="592" y="472"/>
      <point x="553" y="487" type="curve"/>
      <point x="546" y="490"/>
      <point x="540" y="491"/>
      <point x="533" y="491" type="curve" smooth="yes"/>
      <point x="529" y="491"/>
      <point x="524" y="490"/>
      <point x="518" y="488" type="curve"/>
      <point x="498" y="480" type="line"/>
      <point x="474" y="461"/>
      <point x="458" y="447"/>
      <point x="451" y="436" type="curve"/>
      <point x="446" y="429"/>
      <point x="440" y="421"/>
      <point x="434" y="410" type="curve"/>
      <point x="415" y="371" type="line" smooth="yes"/>
      <point x="402" y="345"/>
      <point x="393" y="321"/>
      <point x="390" y="300" type="curve" smooth="yes"/>
      <point x="388" y="285" type="line"/>
      <point x="388" y="240"/>
      <point x="426" y="200"/>
      <point x="475" y="200" type="curve" smooth="yes"/>
      <point x="488" y="200"/>
      <point x="501" y="203"/>
      <point x="514" y="208" type="curve"/>
      <point x="527" y="217"/>
      <point x="534" y="222"/>
      <point x="535" y="224" type="curve"/>
      <point x="562" y="257" type="line"/>
      <point x="573" y="241"/>
      <point x="581" y="204"/>
      <point x="581" y="193" type="curve"/>
      <point x="580" y="182" type="line"/>
      <point x="576" y="180" type="line"/>
      <point x="275" y="180" type="line"/>
      <point x="268" y="173"/>
      <point x="259" y="155"/>
      <point x="247" y="125" type="curve"/>
      <point x="232" y="92"/>
      <point x="223" y="63"/>
      <point x="219" y="38" type="curve"/>
      <point x="271" y="30" type="line"/>
      <point x="300" y="25" type="line"/>
      <point x="318" y="23" type="line"/>
      <point x="345" y="18"/>
      <point x="367" y="-4"/>
      <point x="371" y="-29" type="curve"/>
      <point x="364" y="-35"/>
      <point x="346" y="-40"/>
      <point x="316" y="-43" type="curve"/>
      <point x="305" y="-46" type="line"/>
      <point x="291" y="-47" type="line"/>
      <point x="271" y="-49" type="line"/>
      <point x="225" y="-50" type="line" smooth="yes"/>
      <point x="153" y="-50"/>
      <point x="108" y="-6"/>
      <point x="108" y="59" type="curve" smooth="yes"/>
      <point x="108" y="120"/>
      <point x="119" y="168"/>
      <point x="167" y="243" type="curve"/>
      <point x="163" y="253" type="line"/>
      <point x="145" y="241"/>
      <point x="125" y="221"/>
      <point x="104" y="194" type="curve" smooth="yes"/>
      <point x="48" y="119"/>
      <point x="17" y="48"/>
      <point x="17" y="-28" type="curve" smooth="yes"/>
      <point x="17" y="-129"/>
      <point x="72" y="-189"/>
      <point x="197" y="-189" type="curve" smooth="yes"/>
      <point x="208" y="-189"/>
      <point x="223" y="-187"/>
      <point x="244" y="-183" type="curve" smooth="yes"/>
      <point x="284" y="-175"/>
      <point x="359" y="-151"/>
      <point x="376" y="-135" type="curve"/>
      <point x="408" y="-98"/>
      <point x="439" y="-31"/>
      <point x="448" y="0" type="curve"/>
      <point x="627" y="0" type="line"/>
      <point x="640" y="62" type="line"/>
      <point x="644" y="79" type="line"/>
      <point x="645" y="82" type="line"/>
      <point x="645" y="86" type="line"/>
      <point x="645" y="92" type="line"/>
      <point x="646" y="100" type="line"/>
      <point x="646" y="109" type="line"/>
      <point x="646" y="122" type="line"/>
      <point x="649" y="148"/>
      <point x="650" y="188"/>
      <point x="650" y="242" type="curve"/>
      <point x="640" y="318" type="line"/>
    </contour>
    <contour>
      <point x="513" y="325" type="line"/>
      <point x="505" y="325" type="line" smooth="yes"/>
      <point x="481" y="325"/>
      <point x="455" y="345"/>
      <point x="455" y="353" type="curve" smooth="yes"/>
      <point x="455" y="358"/>
      <point x="459" y="364"/>
      <point x="467" y="370" type="curve"/>
      <point x="480" y="375"/>
      <point x="488" y="378"/>
      <point x="491" y="378" type="curve"/>
      <point x="498" y="377" type="line"/>
      <point x="515" y="367"/>
      <point x="528" y="352"/>
      <point x="535" y="332" type="curve"/>
      <point x="522" y="326" type="line"/>
    </contour>
  </outline>
</glyph>
<glyph name="legGM.init" format="1">
  <advance width="827"/>
  <note>
    arGM.init
  </note>
  <outline>
    <contour>
      <point x="710" y="325" type="line"/>
      <point x="660" y="335" type="line"/>
      <point x="640" y="340"/>
      <point x="619" y="348"/>
      <point x="597" y="360" type="curve" smooth="yes"/>
      <point x="510" y="404" type="line"/>
      <point x="505" y="406"/>
      <point x="500" y="407"/>
      <point x="497" y="407" type="curve"/>
      <point x="485" y="408" type="line"/>
      <point x="449" y="408"/>
      <point x="413" y="385"/>
      <point x="397" y="358" type="curve" smooth="yes"/>
      <point x="368" y="310"/>
      <point x="366" y="264"/>
      <point x="366" y="220" type="curve"/>
      <point x="374" y="217" type="line"/>
      <point x="392" y="229" type="line" smooth="yes"/>
      <point x="400" y="234"/>
      <point x="407" y="237"/>
      <point x="413" y="238" type="curve"/>
      <point x="426" y="241"/>
      <point x="439" y="243"/>
      <point x="453" y="243" type="curve"/>
      <point x="479" y="241" type="line"/>
      <point x="508" y="237" type="line"/>
      <point x="553" y="226" type="line"/>
      <point x="525" y="190"/>
      <point x="499" y="179"/>
      <point x="491" y="179" type="curve" smooth="yes"/>
      <point x="334" y="179" type="line"/>
      <point x="334" y="0" type="line"/>
      <point x="461" y="0" type="line"/>
      <point x="471" y="1" type="line"/>
      <point x="476" y="3" type="line"/>
      <point x="487" y="13" type="line"/>
      <point x="496" y="23"/>
      <point x="510" y="45"/>
      <point x="529" y="79" type="curve" smooth="yes"/>
      <point x="561" y="132"/>
      <point x="604" y="177"/>
      <point x="645" y="194" type="curve"/>
      <point x="671" y="206" type="line" smooth="yes"/>
      <point x="690" y="214"/>
      <point x="706" y="218"/>
      <point x="720" y="218" type="curve"/>
      <point x="757" y="323" type="line"/>
      <point x="739" y="323" type="line"/>
    </contour>
    <contour>
      <point x="302" y="180" type="line"/>
      <point x="285" y="195"/>
      <point x="272" y="214"/>
      <point x="261" y="237" type="curve" smooth="yes"/>
      <point x="252" y="257" type="line"/>
      <point x="249" y="267" type="line"/>
      <point x="247" y="277" type="line"/>
      <point x="244" y="296"/>
      <point x="242" y="310"/>
      <point x="242" y="321" type="curve"/>
      <point x="243" y="336" type="line"/>
      <point x="242" y="345"/>
      <point x="228" y="355"/>
      <point x="217" y="355" type="curve" smooth="yes"/>
      <point x="211" y="355"/>
      <point x="205" y="354"/>
      <point x="198" y="353" type="curve"/>
      <point x="185" y="349" type="line" smooth="yes"/>
      <point x="173" y="345"/>
      <point x="161" y="340"/>
      <point x="150" y="333" type="curve" smooth="yes"/>
      <point x="99" y="301"/>
      <point x="73" y="250"/>
      <point x="64" y="219" type="curve" smooth="yes"/>
      <point x="54" y="180" type="line"/>
      <point x="-3" y="180" type="line"/>
      <point x="-3" y="0" type="line"/>
      <point x="15" y="0" type="line"/>
      <point x="25" y="2" type="line"/>
      <point x="30" y="5"/>
      <point x="34" y="9"/>
      <point x="38" y="15" type="curve"/>
      <point x="41" y="20"/>
      <point x="47" y="38"/>
      <point x="55" y="67" type="curve"/>
      <point x="58" y="76"/>
      <point x="62" y="82"/>
      <point x="67" y="83" type="curve"/>
      <point x="169" y="0" type="line"/>
      <point x="208" y="-30" type="line" smooth="yes"/>
      <point x="219" y="-38"/>
      <point x="229" y="-44"/>
      <point x="236" y="-47" type="curve"/>
      <point x="245" y="-37" type="line"/>
      <point x="247" y="-35"/>
      <point x="249" y="-31"/>
      <point x="250" y="-26" type="curve"/>
      <point x="253" y="-19"/>
      <point x="257" y="-11"/>
      <point x="260" y="0" type="curve"/>
      <point x="336" y="0" type="line"/>
      <point x="336" y="180" type="line"/>
    </contour>
    <contour>
      <point x="133" y="216" type="line"/>
      <point x="140" y="229"/>
      <point x="153" y="238"/>
      <point x="165" y="238" type="curve" smooth="yes"/>
      <point x="168" y="238"/>
      <point x="171" y="237"/>
      <point x="174" y="235" type="curve"/>
      <point x="179" y="231"/>
      <point x="183" y="223"/>
      <point x="186" y="211" type="curve"/>
      <point x="189" y="202" type="line"/>
      <point x="190" y="201"/>
      <point x="190" y="198"/>
      <point x="190" y="194" type="curve"/>
      <point x="191" y="185" type="line"/>
      <point x="191" y="178" type="line"/>
      <point x="167" y="193" type="line"/>
    </contour>
  </outline>
</glyph>
<glyph name="legLA.fina" format="1">
  <advance width="492"/>
  <note>
    arLA.fina
  </note>
  <outline>
    <contour>
      <point x="428" y="586" type="line"/>
      <point x="423" y="584"/>
      <point x="417" y="579"/>
      <point x="410" y="572" type="curve" smooth="yes"/>
      <point x="403" y="565"/>
      <point x="395" y="554"/>
      <point x="386" y="539" type="curve" smooth="yes"/>
      <point x="363" y="499" type="line"/>
      <point x="366" y="483"/>
      <point x="369" y="459"/>
      <point x="368" y="426" type="curve" smooth="yes"/>
      <point x="367" y="398" type="line"/>
      <point x="364" y="369" type="line"/>
      <point x="359" y="333" type="line"/>
      <point x="353" y="301" type="line"/>
      <point x="344" y="267" type="line"/>
      <point x="334" y="233" type="line" smooth="yes"/>
      <point x="327" y="210"/>
      <point x="319" y="187"/>
      <point x="308" y="163" type="curve"/>
      <point x="307" y="221" type="line"/>
      <point x="303" y="266" type="line"/>
      <point x="293" y="309" type="line"/>
      <point x="290" y="325" type="line"/>
      <point x="274" y="369" type="line"/>
      <point x="242" y="427" type="line"/>
      <point x="229" y="447" type="line"/>
      <point x="218" y="465" type="line"/>
      <point x="185" y="504" type="line"/>
      <point x="147" y="541" type="line"/>
      <point x="114" y="568" type="line"/>
      <point x="91" y="583" type="line"/>
      <point x="83" y="562" type="line"/>
      <point x="75" y="539" type="line"/>
      <point x="63" y="495" type="line"/>
      <point x="60" y="475"/>
      <point x="57" y="459"/>
      <point x="56" y="446" type="curve"/>
      <point x="54" y="433"/>
      <point x="53" y="424"/>
      <point x="53" y="419" type="curve" smooth="yes"/>
      <point x="53" y="410"/>
      <point x="54" y="401"/>
      <point x="56" y="393" type="curve"/>
      <point x="61" y="382"/>
      <point x="68" y="371"/>
      <point x="77" y="362" type="curve"/>
      <point x="116" y="328" type="line"/>
      <point x="158" y="293" type="line"/>
      <point x="167" y="312" type="line"/>
      <point x="170" y="328" type="line"/>
      <point x="193" y="307"/>
      <point x="225" y="263"/>
      <point x="225" y="256" type="curve"/>
      <point x="232" y="248"/>
      <point x="239" y="237"/>
      <point x="244" y="220" type="curve"/>
      <point x="254" y="193" type="line"/>
      <point x="259" y="176" type="line"/>
      <point x="261" y="173"/>
      <point x="262" y="168"/>
      <point x="262" y="161" type="curve" smooth="yes"/>
      <point x="262" y="152"/>
      <point x="259" y="142"/>
      <point x="253" y="131" type="curve"/>
      <point x="248" y="120"/>
      <point x="241" y="113"/>
      <point x="233" y="106" type="curve"/>
      <point x="202" y="81" type="line"/>
      <point x="165" y="53" type="line"/>
      <point x="93" y="2" type="line"/>
      <point x="13" y="-54" type="line"/>
      <point x="12" y="-63" type="line"/>
      <point x="24" y="-63" type="line"/>
      <point x="31" y="-63" type="line"/>
      <point x="37" y="-63" type="line"/>
      <point x="45" y="-63" type="line" smooth="yes"/>
      <point x="56" y="-63"/>
      <point x="66" y="-63"/>
      <point x="76" y="-63" type="curve" smooth="yes"/>
      <point x="86" y="-63"/>
      <point x="96" y="-63"/>
      <point x="105" y="-62" type="curve" smooth="yes"/>
      <point x="146" y="-57" type="line"/>
      <point x="167" y="-53" type="line"/>
      <point x="230" y="-33"/>
      <point x="269" y="-17"/>
      <point x="283" y="-5" type="curve"/>
      <point x="303" y="14" type="line"/>
      <point x="312" y="24" type="line"/>
      <point x="321" y="33"/>
      <point x="328" y="45"/>
      <point x="333" y="60" type="curve"/>
      <point x="344" y="79"/>
      <point x="353" y="104"/>
      <point x="361" y="136" type="curve" smooth="yes"/>
      <point x="380" y="215" type="line"/>
      <point x="389" y="172" type="line"/>
      <point x="390" y="163" type="line"/>
      <point x="391" y="154" type="line"/>
      <point x="391" y="147" type="line"/>
      <point x="394" y="128" type="line"/>
      <point x="394" y="111" type="line"/>
      <point x="396" y="102"/>
      <point x="397" y="68"/>
      <point x="397" y="7" type="curve"/>
      <point x="403" y="0" type="line"/>
      <point x="495" y="0" type="line"/>
      <point x="495" y="180" type="line"/>
      <point x="469" y="180" type="line"/>
    </contour>
    <contour>
      <point x="69" y="-153" type="move" name="markBelow"/>
    </contour>
    <contour>
      <point x="385.35518292682923" y="615.2118902439024" type="move" name="markAbove_1"/>
    </contour>
    <contour>
      <point x="85" y="615.5304878048782" type="move" name="hamzaAbove"/>
    </contour>
    <contour>
      <point x="60" y="-122" type="move" name="hamzaBelow"/>
    </contour>
    <contour>
      <point x="276.9817073170732" y="562.8932926829268" type="move" name="smallVAbove"/>
    </contour>
    <contour>
      <point x="79.00457317073165" y="604.0411585365853" type="move" name="markAbove_2"/>
    </contour>
  </outline>
</glyph>
<glyph name="legLE.isol" format="1">
  <advance width="642"/>
  <note>
    arLE.isol
  </note>
  <outline>
    <contour>
      <point x="546" y="533" type="line"/>
      <point x="542" y="539"/>
      <point x="539" y="544"/>
      <point x="537" y="549" type="curve"/>
      <point x="534" y="560" type="line"/>
      <point x="534" y="572" type="line"/>
      <point x="535" y="583" type="line"/>
      <point x="527" y="589" type="line"/>
      <point x="486" y="532"/>
      <point x="463" y="482"/>
      <point x="456" y="450" type="curve"/>
      <point x="461" y="443"/>
      <point x="467" y="434"/>
      <point x="472" y="423" type="curve"/>
      <point x="476" y="418"/>
      <point x="478" y="414"/>
      <point x="479" y="409" type="curve"/>
      <point x="483" y="398" type="line"/>
      <point x="500" y="362"/>
      <point x="514" y="260"/>
      <point x="514" y="184" type="curve" smooth="yes"/>
      <point x="514" y="181"/>
      <point x="512" y="180"/>
      <point x="508" y="180" type="curve" smooth="yes"/>
      <point x="275" y="180" type="line"/>
      <point x="268" y="173"/>
      <point x="259" y="155"/>
      <point x="247" y="125" type="curve"/>
      <point x="232" y="92"/>
      <point x="223" y="63"/>
      <point x="219" y="38" type="curve"/>
      <point x="271" y="30" type="line"/>
      <point x="300" y="25" type="line"/>
      <point x="318" y="23" type="line"/>
      <point x="345" y="18"/>
      <point x="367" y="-4"/>
      <point x="371" y="-29" type="curve"/>
      <point x="364" y="-35"/>
      <point x="346" y="-40"/>
      <point x="316" y="-43" type="curve"/>
      <point x="305" y="-46" type="line"/>
      <point x="291" y="-47" type="line"/>
      <point x="271" y="-49" type="line"/>
      <point x="225" y="-50" type="line" smooth="yes"/>
      <point x="153" y="-50"/>
      <point x="108" y="-6"/>
      <point x="108" y="59" type="curve" smooth="yes"/>
      <point x="108" y="120"/>
      <point x="119" y="168"/>
      <point x="167" y="243" type="curve"/>
      <point x="163" y="253" type="line"/>
      <point x="145" y="241"/>
      <point x="125" y="221"/>
      <point x="104" y="194" type="curve" smooth="yes"/>
      <point x="48" y="119"/>
      <point x="17" y="48"/>
      <point x="17" y="-28" type="curve" smooth="yes"/>
      <point x="17" y="-129"/>
      <point x="72" y="-189"/>
      <point x="197" y="-189" type="curve" smooth="yes"/>
      <point x="208" y="-189"/>
      <point x="223" y="-187"/>
      <point x="244" y="-183" type="curve" smooth="yes"/>
      <point x="284" y="-175"/>
      <point x="359" y="-151"/>
      <point x="376" y="-135" type="curve"/>
      <point x="408" y="-98"/>
      <point x="439" y="-31"/>
      <point x="448" y="0" type="curve"/>
      <point x="531" y="0" type="line" smooth="yes"/>
      <point x="543" y="0"/>
      <point x="551" y="7"/>
      <point x="555" y="16" type="curve" smooth="yes"/>
      <point x="560" y="27"/>
      <point x="565" y="44"/>
      <point x="569" y="67" type="curve" smooth="yes"/>
      <point x="579" y="139" type="line"/>
      <point x="581" y="156" type="line"/>
      <point x="581" y="181" type="line"/>
      <point x="578" y="238" type="line"/>
      <point x="574" y="272" type="line"/>
      <point x="572" y="297" type="line"/>
      <point x="571" y="338" type="line"/>
      <point x="637" y="441" type="line"/>
      <point x="601" y="479" type="line"/>
    </contour>
  </outline>
</glyph>
<glyph name="legLG.init" format="1">
  <advance width="677"/>
  <note>
    arLG.init
  </note>
  <outline>
    <contour>
      <point x="542" y="533" type="line"/>
      <point x="538" y="539"/>
      <point x="535" y="544"/>
      <point x="533" y="549" type="curve"/>
      <point x="530" y="560" type="line"/>
      <point x="530" y="572" type="line"/>
      <point x="531" y="583" type="line"/>
      <point x="523" y="589" type="line"/>
      <point x="482" y="532"/>
      <point x="459" y="482"/>
      <point x="452" y="450" type="curve"/>
      <point x="457" y="443"/>
      <point x="463" y="434"/>
      <point x="468" y="423" type="curve"/>
      <point x="472" y="418"/>
      <point x="474" y="414"/>
      <point x="475" y="409" type="curve"/>
      <point x="479" y="398" type="line"/>
      <point x="496" y="362"/>
      <point x="510" y="260"/>
      <point x="510" y="184" type="curve"/>
      <point x="509" y="182" type="line"/>
      <point x="507" y="181" type="line"/>
      <point x="505" y="180" type="line"/>
      <point x="447" y="180" type="line"/>
      <point x="286" y="180" type="line"/>
      <point x="302" y="199"/>
      <point x="327" y="204"/>
      <point x="356" y="208" type="curve"/>
      <point x="383" y="208" type="line"/>
      <point x="419" y="323" type="line"/>
      <point x="402" y="323" type="line"/>
      <point x="373" y="326" type="line"/>
      <point x="323" y="335" type="line"/>
      <point x="303" y="340"/>
      <point x="282" y="349"/>
      <point x="259" y="360" type="curve" smooth="yes"/>
      <point x="173" y="404" type="line"/>
      <point x="168" y="407"/>
      <point x="163" y="408"/>
      <point x="160" y="408" type="curve" smooth="yes"/>
      <point x="147" y="408" type="line" smooth="yes"/>
      <point x="112" y="408"/>
      <point x="75" y="386"/>
      <point x="60" y="358" type="curve"/>
      <point x="29" y="310"/>
      <point x="28" y="264"/>
      <point x="28" y="221" type="curve"/>
      <point x="36" y="218" type="line"/>
      <point x="55" y="230" type="line"/>
      <point x="62" y="235"/>
      <point x="69" y="238"/>
      <point x="75" y="239" type="curve"/>
      <point x="88" y="242"/>
      <point x="101" y="244"/>
      <point x="116" y="244" type="curve"/>
      <point x="141" y="241" type="line"/>
      <point x="171" y="237" type="line"/>
      <point x="216" y="227" type="line"/>
      <point x="187" y="190"/>
      <point x="161" y="180"/>
      <point x="153" y="180" type="curve" smooth="yes"/>
      <point x="-3" y="180" type="line"/>
      <point x="-3" y="0" type="line"/>
      <point x="124" y="0" type="line"/>
      <point x="134" y="2" type="line"/>
      <point x="138" y="4" type="line"/>
      <point x="149" y="14" type="line"/>
      <point x="160" y="22"/>
      <point x="171" y="38"/>
      <point x="183" y="63" type="curve" smooth="yes"/>
      <point x="208" y="112" type="line" smooth="yes"/>
      <point x="217" y="129"/>
      <point x="225" y="140"/>
      <point x="232" y="146" type="curve"/>
      <point x="232" y="102" type="line"/>
      <point x="233" y="94" type="line"/>
      <point x="233" y="81" type="line"/>
      <point x="233" y="68" type="line"/>
      <point x="234" y="28" type="line" smooth="yes"/>
      <point x="234" y="9"/>
      <point x="236" y="0"/>
      <point x="241" y="0" type="curve" smooth="yes"/>
      <point x="384" y="0" type="line"/>
      <point x="527" y="0" type="line" smooth="yes"/>
      <point x="539" y="0"/>
      <point x="547" y="7"/>
      <point x="551" y="16" type="curve" smooth="yes"/>
      <point x="556" y="27"/>
      <point x="561" y="44"/>
      <point x="565" y="67" type="curve" smooth="yes"/>
      <point x="575" y="139" type="line"/>
      <point x="577" y="156" type="line"/>
      <point x="577" y="181" type="line"/>
      <point x="574" y="238" type="line"/>
      <point x="570" y="272" type="line"/>
      <point x="568" y="297" type="line"/>
      <point x="567" y="338" type="line"/>
      <point x="633" y="441" type="line"/>
      <point x="597" y="479" type="line"/>
    </contour>
  </outline>
</glyph>
<glyph name="legLG.isol" format="1">
  <advance width="746"/>
  <note>
    arLG.isol
  </note>
  <outline>
    <contour>
      <point x="617" y="533" type="line"/>
      <point x="613" y="539"/>
      <point x="610" y="544"/>
      <point x="608" y="549" type="curve"/>
      <point x="605" y="560" type="line"/>
      <point x="605" y="572" type="line"/>
      <point x="606" y="583" type="line"/>
      <point x="599" y="589" type="line"/>
      <point x="556" y="532"/>
      <point x="534" y="482"/>
      <point x="527" y="450" type="curve"/>
      <point x="532" y="443"/>
      <point x="538" y="434"/>
      <point x="543" y="423" type="curve"/>
      <point x="547" y="418"/>
      <point x="549" y="414"/>
      <point x="550" y="409" type="curve"/>
      <point x="555" y="398" type="line" smooth="yes"/>
      <point x="571" y="362"/>
      <point x="585" y="260"/>
      <point x="585" y="184" type="curve"/>
      <point x="584" y="182" type="line"/>
      <point x="583" y="181" type="line"/>
      <point x="581" y="180" type="line"/>
      <point x="465" y="180" type="line"/>
      <point x="343" y="180" type="line" smooth="yes"/>
      <point x="332" y="180"/>
      <point x="323" y="183"/>
      <point x="314" y="188" type="curve"/>
      <point x="305" y="197" type="line"/>
      <point x="301" y="202" type="line"/>
      <point x="299" y="213" type="line"/>
      <point x="299" y="222" type="line" smooth="yes"/>
      <point x="299" y="229"/>
      <point x="300" y="236"/>
      <point x="302" y="244" type="curve"/>
      <point x="307" y="260" type="line"/>
      <point x="356" y="271" type="line"/>
      <point x="361" y="276"/>
      <point x="368" y="296"/>
      <point x="379" y="329" type="curve" smooth="yes"/>
      <point x="393" y="373" type="line"/>
      <point x="396" y="377" type="line"/>
      <point x="397" y="386" type="line"/>
      <point x="399" y="398" type="line"/>
      <point x="355" y="397" type="line"/>
      <point x="304" y="396" type="line"/>
      <point x="274" y="397" type="line"/>
      <point x="245" y="400" type="line"/>
      <point x="209" y="407"/>
      <point x="187" y="412"/>
      <point x="179" y="415" type="curve"/>
      <point x="152" y="424"/>
      <point x="132" y="428"/>
      <point x="119" y="428" type="curve"/>
      <point x="101" y="426" type="line"/>
      <point x="84" y="420" type="line"/>
      <point x="48" y="392"/>
      <point x="19" y="319"/>
      <point x="19" y="247" type="curve"/>
      <point x="20" y="242" type="line"/>
      <point x="24" y="241" type="line"/>
      <point x="36" y="256" type="line"/>
      <point x="47" y="268" type="line"/>
      <point x="60" y="278" type="line"/>
      <point x="71" y="286" type="line"/>
      <point x="81" y="290" type="line"/>
      <point x="83" y="291"/>
      <point x="86" y="292"/>
      <point x="89" y="292" type="curve" smooth="yes"/>
      <point x="90" y="292"/>
      <point x="96" y="292"/>
      <point x="106" y="292" type="curve"/>
      <point x="127" y="291" type="line"/>
      <point x="157" y="288" type="line"/>
      <point x="120" y="254"/>
      <point x="87" y="210"/>
      <point x="60" y="155" type="curve"/>
      <point x="53" y="142"/>
      <point x="47" y="130"/>
      <point x="43" y="121" type="curve" smooth="yes"/>
      <point x="35" y="102"/>
      <point x="24" y="58"/>
      <point x="24" y="39" type="curve" smooth="yes"/>
      <point x="24" y="-63"/>
      <point x="36" y="-136"/>
      <point x="60" y="-179" type="curve"/>
      <point x="93" y="-228"/>
      <point x="143" y="-252"/>
      <point x="209" y="-252" type="curve"/>
      <point x="252" y="-250" type="line"/>
      <point x="294" y="-245" type="line"/>
      <point x="321" y="-240"/>
      <point x="348" y="-232"/>
      <point x="373" y="-223" type="curve"/>
      <point x="384" y="-213"/>
      <point x="399" y="-198"/>
      <point x="417" y="-178" type="curve" smooth="yes"/>
      <point x="445" y="-147" type="line"/>
      <point x="458" y="-132" type="line"/>
      <point x="459" y="-131"/>
      <point x="460" y="-128"/>
      <point x="460" y="-125" type="curve" smooth="yes"/>
      <point x="460" y="-120" type="line"/>
      <point x="451" y="-123"/>
      <point x="421" y="-124"/>
      <point x="372" y="-124" type="curve" smooth="yes"/>
      <point x="356" y="-124" type="line"/>
      <point x="285" y="-124" type="line"/>
      <point x="260" y="-121" type="line"/>
      <point x="230" y="-117" type="line" smooth="yes"/>
      <point x="181" y="-109"/>
      <point x="117" y="-88"/>
      <point x="89" y="-32" type="curve"/>
      <point x="76" y="1" type="line"/>
      <point x="72" y="20" type="line"/>
      <point x="72" y="40" type="line" smooth="yes"/>
      <point x="72" y="60"/>
      <point x="76" y="79"/>
      <point x="84" y="97" type="curve"/>
      <point x="102" y="129"/>
      <point x="118" y="154"/>
      <point x="133" y="171" type="curve"/>
      <point x="167" y="202"/>
      <point x="190" y="220"/>
      <point x="203" y="227" type="curve"/>
      <point x="228" y="237" type="line"/>
      <point x="262" y="249" type="line"/>
      <point x="259" y="242"/>
      <point x="256" y="232"/>
      <point x="254" y="218" type="curve"/>
      <point x="250" y="202" type="line"/>
      <point x="248" y="182" type="line"/>
      <point x="243" y="146" type="line"/>
      <point x="242" y="113" type="line" smooth="yes"/>
      <point x="242" y="60"/>
      <point x="267" y="0"/>
      <point x="314" y="0" type="curve" smooth="yes"/>
      <point x="459" y="0" type="line"/>
      <point x="602" y="0" type="line" smooth="yes"/>
      <point x="614" y="0"/>
      <point x="623" y="7"/>
      <point x="626" y="16" type="curve"/>
      <point x="631" y="27"/>
      <point x="636" y="44"/>
      <point x="640" y="67" type="curve" smooth="yes"/>
      <point x="650" y="139" type="line"/>
      <point x="652" y="156" type="line"/>
      <point x="652" y="181" type="line"/>
      <point x="649" y="238" type="line"/>
      <point x="645" y="272" type="line"/>
      <point x="644" y="297" type="line"/>
      <point x="642" y="338" type="line"/>
      <point x="708" y="441" type="line"/>
      <point x="672" y="479" type="line"/>
    </contour>
  </outline>
</glyph>
<glyph name="legLM.init" format="1">
  <advance width="266"/>
  <note>
    arLM.init
  </note>
  <outline>
    <contour>
      <point x="247" y="137"/>
      <point x="235" y="154"/>
      <point x="216" y="163" type="curve"/>
      <point x="166" y="194" type="line"/>
      <point x="152" y="374" type="line"/>
      <point x="155" y="375"/>
      <point x="168" y="394"/>
      <point x="191" y="431" type="curve" smooth="yes"/>
      <point x="226" y="487" type="line"/>
      <point x="156" y="537" type="line"/>
      <point x="127" y="563"/>
      <point x="113" y="589"/>
      <point x="113" y="615" type="curve"/>
      <point x="108" y="620" type="line"/>
      <point x="105" y="622" type="line"/>
      <point x="103" y="623" type="line"/>
      <point x="89" y="600" type="line"/>
      <point x="62" y="546" type="line"/>
      <point x="48" y="515"/>
      <point x="40" y="494"/>
      <point x="37" y="485" type="curve"/>
      <point x="44" y="472"/>
      <point x="49" y="464"/>
      <point x="52" y="461" type="curve"/>
      <point x="63" y="448" type="line"/>
      <point x="65" y="436" type="line"/>
      <point x="72" y="398" type="line"/>
      <point x="77" y="377"/>
      <point x="82" y="340"/>
      <point x="87" y="289" type="curve" smooth="yes"/>
      <point x="91" y="254" type="line"/>
      <point x="93" y="240" type="line"/>
      <point x="93" y="228" type="line"/>
      <point x="94" y="205" type="line"/>
      <point x="95" y="180" type="line"/>
      <point x="-6" y="180" type="line"/>
      <point x="-6" y="0" type="line"/>
      <point x="141" y="0" type="line" smooth="yes"/>
      <point x="159" y="0"/>
      <point x="174" y="-7"/>
      <point x="185" y="-20" type="curve" smooth="yes"/>
      <point x="215" y="-57" type="line"/>
      <point x="222" y="-55"/>
      <point x="231" y="-35"/>
      <point x="240" y="4" type="curve"/>
      <point x="245" y="22" type="line"/>
      <point x="248" y="35" type="line"/>
      <point x="249" y="43" type="line"/>
      <point x="251" y="58" type="line"/>
      <point x="253" y="69"/>
      <point x="254" y="84"/>
      <point x="254" y="101" type="curve" smooth="yes"/>
      <point x="254" y="111" type="line"/>
    </contour>
  </outline>
</glyph>
<glyph name="legLM.isol" format="1">
  <advance width="615"/>
  <note>
    arLM.isol
  </note>
  <outline>
    <contour>
      <point x="523" y="533" type="line"/>
      <point x="519" y="539"/>
      <point x="516" y="544"/>
      <point x="514" y="549" type="curve"/>
      <point x="511" y="560" type="line"/>
      <point x="511" y="572" type="line"/>
      <point x="512" y="583" type="line"/>
      <point x="504" y="589" type="line"/>
      <point x="463" y="533"/>
      <point x="440" y="483"/>
      <point x="433" y="450" type="curve"/>
      <point x="438" y="443"/>
      <point x="444" y="434"/>
      <point x="449" y="423" type="curve"/>
      <point x="453" y="418"/>
      <point x="455" y="414"/>
      <point x="456" y="409" type="curve"/>
      <point x="460" y="398" type="line"/>
      <point x="477" y="362"/>
      <point x="491" y="261"/>
      <point x="491" y="184" type="curve"/>
      <point x="490" y="182" type="line"/>
      <point x="488" y="181" type="line"/>
      <point x="486" y="180" type="line"/>
      <point x="387" y="180" type="line"/>
      <point x="360" y="200"/>
      <point x="351" y="245"/>
      <point x="343" y="286" type="curve"/>
      <point x="334" y="357" type="line"/>
      <point x="334" y="363" type="line"/>
      <point x="334" y="373" type="line"/>
      <point x="335" y="381" type="line"/>
      <point x="335" y="388"/>
      <point x="334" y="392"/>
      <point x="331" y="395" type="curve" smooth="yes"/>
      <point x="330" y="396"/>
      <point x="328" y="396"/>
      <point x="323" y="396" type="curve"/>
      <point x="303" y="394" type="line"/>
      <point x="265" y="387" type="line"/>
      <point x="230" y="379"/>
      <point x="202" y="370"/>
      <point x="181" y="361" type="curve"/>
      <point x="113" y="329"/>
      <point x="86" y="310"/>
      <point x="54" y="225" type="curve"/>
      <point x="46" y="208"/>
      <point x="39" y="187"/>
      <point x="33" y="163" type="curve" smooth="yes"/>
      <point x="28" y="144" type="line"/>
      <point x="24" y="128" type="line"/>
      <point x="21" y="118" type="line"/>
      <point x="21" y="117"/>
      <point x="21" y="114"/>
      <point x="21" y="110" type="curve"/>
      <point x="19" y="95" type="line"/>
      <point x="24" y="42" type="line"/>
      <point x="35" y="-33" type="line"/>
      <point x="69" y="-229" type="line"/>
      <point x="90" y="-213"/>
      <point x="106" y="-166"/>
      <point x="117" y="-110" type="curve"/>
      <point x="118" y="-101" type="line"/>
      <point x="118" y="-94" type="line"/>
      <point x="115" y="-63" type="line"/>
      <point x="111" y="-26" type="line"/>
      <point x="100" y="64" type="line" smooth="yes"/>
      <point x="96" y="99"/>
      <point x="94" y="121"/>
      <point x="94" y="130" type="curve"/>
      <point x="95" y="144" type="line"/>
      <point x="100" y="171"/>
      <point x="136" y="195"/>
      <point x="157" y="199" type="curve"/>
      <point x="143" y="156" type="line"/>
      <point x="138" y="142" type="line"/>
      <point x="133" y="123" type="line"/>
      <point x="131" y="120"/>
      <point x="130" y="117"/>
      <point x="130" y="114" type="curve" smooth="yes"/>
      <point x="130" y="104" type="line"/>
      <point x="135" y="89"/>
      <point x="144" y="75"/>
      <point x="159" y="61" type="curve"/>
      <point x="180" y="45"/>
      <point x="201" y="30"/>
      <point x="223" y="15" type="curve"/>
      <point x="254" y="-4" type="line"/>
      <point x="294" y="-25" type="line"/>
      <point x="344" y="-57" type="line"/>
      <point x="353" y="-49"/>
      <point x="360" y="-41"/>
      <point x="365" y="-32" type="curve"/>
      <point x="374" y="-13"/>
      <point x="380" y="-2"/>
      <point x="382" y="0" type="curve"/>
      <point x="508" y="0" type="line" smooth="yes"/>
      <point x="520" y="0"/>
      <point x="528" y="7"/>
      <point x="532" y="16" type="curve" smooth="yes"/>
      <point x="537" y="27"/>
      <point x="542" y="44"/>
      <point x="546" y="67" type="curve" smooth="yes"/>
      <point x="556" y="139" type="line"/>
      <point x="558" y="156" type="line"/>
      <point x="558" y="181" type="line"/>
      <point x="555" y="238" type="line"/>
      <point x="551" y="272" type="line"/>
      <point x="549" y="297" type="line"/>
      <point x="548" y="338" type="line"/>
      <point x="614" y="441" type="line"/>
      <point x="578" y="479" type="line"/>
    </contour>
    <contour>
      <point x="248" y="193" type="line"/>
      <point x="231" y="205"/>
      <point x="221" y="213"/>
      <point x="217" y="218" type="curve"/>
      <point x="217" y="230"/>
      <point x="259" y="248"/>
      <point x="268" y="248" type="curve"/>
      <point x="272" y="246" type="line"/>
      <point x="284" y="199" type="line"/>
      <point x="290" y="169" type="line"/>
      <point x="273" y="178" type="line"/>
    </contour>
  </outline>
</glyph>
<glyph name="legLMG.init" format="1">
  <advance width="801"/>
  <note>
    arLMG.init
  </note>
  <outline>
    <contour>
      <point x="695" y="136"/>
      <point x="683" y="153"/>
      <point x="665" y="162" type="curve"/>
      <point x="614" y="194" type="line"/>
      <point x="601" y="374" type="line"/>
      <point x="603" y="375"/>
      <point x="616" y="394"/>
      <point x="640" y="431" type="curve" smooth="yes"/>
      <point x="674" y="486" type="line"/>
      <point x="604" y="537" type="line"/>
      <point x="576" y="562"/>
      <point x="562" y="588"/>
      <point x="562" y="614" type="curve"/>
      <point x="556" y="620" type="line"/>
      <point x="553" y="622" type="line"/>
      <point x="551" y="622" type="line"/>
      <point x="538" y="599" type="line"/>
      <point x="510" y="545" type="line"/>
      <point x="496" y="514"/>
      <point x="488" y="494"/>
      <point x="485" y="485" type="curve"/>
      <point x="493" y="472"/>
      <point x="498" y="463"/>
      <point x="500" y="460" type="curve"/>
      <point x="511" y="448" type="line"/>
      <point x="514" y="435" type="line"/>
      <point x="520" y="397" type="line"/>
      <point x="525" y="376"/>
      <point x="530" y="340"/>
      <point x="535" y="288" type="curve"/>
      <point x="540" y="254" type="line"/>
      <point x="542" y="239" type="line"/>
      <point x="542" y="227" type="line"/>
      <point x="542" y="204" type="line"/>
      <point x="543" y="179" type="line"/>
      <point x="442" y="179" type="line"/>
      <point x="286" y="180" type="line"/>
      <point x="302" y="199"/>
      <point x="327" y="204"/>
      <point x="356" y="208" type="curve"/>
      <point x="383" y="208" type="line"/>
      <point x="419" y="323" type="line"/>
      <point x="402" y="323" type="line"/>
      <point x="373" y="326" type="line"/>
      <point x="323" y="335" type="line"/>
      <point x="303" y="340"/>
      <point x="282" y="349"/>
      <point x="259" y="360" type="curve" smooth="yes"/>
      <point x="173" y="404" type="line"/>
      <point x="168" y="407"/>
      <point x="163" y="408"/>
      <point x="160" y="408" type="curve" smooth="yes"/>
      <point x="147" y="408" type="line" smooth="yes"/>
      <point x="112" y="408"/>
      <point x="75" y="386"/>
      <point x="60" y="358" type="curve"/>
      <point x="29" y="310"/>
      <point x="28" y="264"/>
      <point x="28" y="221" type="curve"/>
      <point x="36" y="218" type="line"/>
      <point x="55" y="230" type="line"/>
      <point x="62" y="235"/>
      <point x="69" y="238"/>
      <point x="75" y="239" type="curve"/>
      <point x="88" y="242"/>
      <point x="101" y="244"/>
      <point x="116" y="244" type="curve"/>
      <point x="141" y="241" type="line"/>
      <point x="171" y="237" type="line"/>
      <point x="216" y="227" type="line"/>
      <point x="187" y="190"/>
      <point x="161" y="180"/>
      <point x="153" y="180" type="curve" smooth="yes"/>
      <point x="-3" y="180" type="line"/>
      <point x="-3" y="0" type="line"/>
      <point x="124" y="0" type="line"/>
      <point x="134" y="2" type="line"/>
      <point x="138" y="4" type="line"/>
      <point x="149" y="14" type="line"/>
      <point x="160" y="22"/>
      <point x="171" y="38"/>
      <point x="183" y="63" type="curve" smooth="yes"/>
      <point x="208" y="112" type="line" smooth="yes"/>
      <point x="217" y="129"/>
      <point x="225" y="140"/>
      <point x="232" y="146" type="curve"/>
      <point x="232" y="102" type="line"/>
      <point x="233" y="94" type="line"/>
      <point x="233" y="81" type="line"/>
      <point x="233" y="68" type="line"/>
      <point x="234" y="28" type="line" smooth="yes"/>
      <point x="234" y="9"/>
      <point x="236" y="0"/>
      <point x="241" y="0" type="curve" smooth="yes"/>
      <point x="447" y="0" type="line"/>
      <point x="589" y="0" type="line" smooth="yes"/>
      <point x="607" y="0"/>
      <point x="622" y="-7"/>
      <point x="633" y="-20" type="curve" smooth="yes"/>
      <point x="663" y="-58" type="line"/>
      <point x="670" y="-56"/>
      <point x="679" y="-35"/>
      <point x="688" y="4" type="curve"/>
      <point x="693" y="22" type="line"/>
      <point x="696" y="34" type="line"/>
      <point x="697" y="43" type="line"/>
      <point x="699" y="58" type="line"/>
      <point x="702" y="69"/>
      <point x="703" y="83"/>
      <point x="703" y="101" type="curve"/>
      <point x="702" y="111" type="line"/>
    </contour>
  </outline>
</glyph>
<glyph name="legMG.init" format="1">
  <advance width="752"/>
  <note>
    arMG.init
  </note>
  <outline>
    <contour>
      <point x="708" y="215" type="line"/>
      <point x="694" y="274" type="line"/>
      <point x="671" y="369" type="line"/>
      <point x="663" y="384" type="line"/>
      <point x="655" y="388" type="line"/>
      <point x="652" y="390" type="line"/>
      <point x="631" y="390"/>
      <point x="608" y="381"/>
      <point x="583" y="362" type="curve" smooth="yes"/>
      <point x="531" y="324"/>
      <point x="506" y="275"/>
      <point x="491" y="235" type="curve" smooth="yes"/>
      <point x="470" y="180" type="line"/>
      <point x="447" y="180" type="line"/>
      <point x="286" y="180" type="line"/>
      <point x="302" y="199"/>
      <point x="327" y="204"/>
      <point x="356" y="208" type="curve"/>
      <point x="383" y="208" type="line"/>
      <point x="419" y="323" type="line"/>
      <point x="402" y="323" type="line"/>
      <point x="373" y="326" type="line"/>
      <point x="323" y="335" type="line"/>
      <point x="303" y="340"/>
      <point x="282" y="349"/>
      <point x="259" y="360" type="curve" smooth="yes"/>
      <point x="173" y="404" type="line"/>
      <point x="168" y="407"/>
      <point x="163" y="408"/>
      <point x="160" y="408" type="curve" smooth="yes"/>
      <point x="147" y="408" type="line" smooth="yes"/>
      <point x="112" y="408"/>
      <point x="75" y="386"/>
      <point x="60" y="358" type="curve"/>
      <point x="29" y="310"/>
      <point x="28" y="264"/>
      <point x="28" y="221" type="curve"/>
      <point x="36" y="218" type="line"/>
      <point x="55" y="230" type="line"/>
      <point x="62" y="235"/>
      <point x="69" y="238"/>
      <point x="75" y="239" type="curve"/>
      <point x="88" y="242"/>
      <point x="101" y="244"/>
      <point x="116" y="244" type="curve"/>
      <point x="141" y="241" type="line"/>
      <point x="171" y="237" type="line"/>
      <point x="216" y="227" type="line"/>
      <point x="187" y="190"/>
      <point x="161" y="180"/>
      <point x="153" y="180" type="curve" smooth="yes"/>
      <point x="-3" y="180" type="line"/>
      <point x="-3" y="0" type="line"/>
      <point x="124" y="0" type="line"/>
      <point x="134" y="2" type="line"/>
      <point x="138" y="4" type="line"/>
      <point x="149" y="14" type="line"/>
      <point x="160" y="22"/>
      <point x="171" y="38"/>
      <point x="183" y="63" type="curve" smooth="yes"/>
      <point x="208" y="112" type="line" smooth="yes"/>
      <point x="217" y="129"/>
      <point x="225" y="140"/>
      <point x="232" y="146" type="curve"/>
      <point x="232" y="102" type="line"/>
      <point x="233" y="94" type="line"/>
      <point x="233" y="81" type="line"/>
      <point x="233" y="68" type="line"/>
      <point x="234" y="28" type="line" smooth="yes"/>
      <point x="234" y="9"/>
      <point x="236" y="0"/>
      <point x="241" y="0" type="curve" smooth="yes"/>
      <point x="447" y="0" type="line"/>
      <point x="453" y="0" type="line"/>
      <point x="463" y="1" type="line"/>
      <point x="465" y="2"/>
      <point x="467" y="4"/>
      <point x="469" y="7" type="curve"/>
      <point x="478" y="24"/>
      <point x="483" y="36"/>
      <point x="485" y="43" type="curve"/>
      <point x="504" y="100" type="line"/>
      <point x="548" y="70" type="line"/>
      <point x="564" y="60" type="line"/>
      <point x="590" y="44" type="line"/>
      <point x="621" y="25" type="line"/>
      <point x="632" y="19" type="line"/>
      <point x="650" y="12" type="line"/>
      <point x="662" y="32"/>
      <point x="674" y="58"/>
      <point x="686" y="90" type="curve" smooth="yes"/>
      <point x="693" y="110" type="line"/>
      <point x="699" y="128" type="line"/>
      <point x="708" y="151"/>
      <point x="711" y="173"/>
      <point x="711" y="184" type="curve"/>
      <point x="710" y="198" type="line"/>
    </contour>
    <contour>
      <point x="561" y="249" type="line"/>
      <point x="568" y="261"/>
      <point x="581" y="270"/>
      <point x="593" y="270" type="curve" smooth="yes"/>
      <point x="597" y="270"/>
      <point x="600" y="269"/>
      <point x="603" y="267" type="curve"/>
      <point x="608" y="263"/>
      <point x="611" y="255"/>
      <point x="614" y="244" type="curve" smooth="yes"/>
      <point x="617" y="234" type="line"/>
      <point x="618" y="233"/>
      <point x="618" y="230"/>
      <point x="618" y="226" type="curve"/>
      <point x="619" y="217" type="line"/>
      <point x="619" y="210" type="line"/>
      <point x="595" y="226" type="line"/>
    </contour>
  </outline>
</glyph>
<glyph name="legMM.init" format="1">
  <advance width="645"/>
  <note>
    arMM.init
  </note>
  <outline>
    <contour>
      <point x="589" y="217" type="line"/>
      <point x="576" y="276" type="line"/>
      <point x="552" y="371" type="line"/>
      <point x="544" y="386" type="line"/>
      <point x="536" y="390" type="line"/>
      <point x="533" y="392" type="line"/>
      <point x="493" y="392"/>
      <point x="450" y="355"/>
      <point x="429" y="332" type="curve" smooth="yes"/>
      <point x="408" y="308"/>
      <point x="388" y="277"/>
      <point x="372" y="237" type="curve" smooth="yes"/>
      <point x="352" y="182" type="line"/>
      <point x="336" y="180" type="line"/>
      <point x="302" y="180" type="line"/>
      <point x="285" y="195"/>
      <point x="272" y="214"/>
      <point x="261" y="237" type="curve" smooth="yes"/>
      <point x="252" y="257" type="line"/>
      <point x="249" y="267" type="line"/>
      <point x="247" y="277" type="line"/>
      <point x="244" y="296"/>
      <point x="242" y="310"/>
      <point x="242" y="321" type="curve"/>
      <point x="243" y="336" type="line"/>
      <point x="242" y="345"/>
      <point x="228" y="355"/>
      <point x="217" y="355" type="curve" smooth="yes"/>
      <point x="211" y="355"/>
      <point x="205" y="354"/>
      <point x="198" y="353" type="curve"/>
      <point x="185" y="349" type="line" smooth="yes"/>
      <point x="173" y="345"/>
      <point x="161" y="340"/>
      <point x="150" y="333" type="curve" smooth="yes"/>
      <point x="99" y="301"/>
      <point x="73" y="250"/>
      <point x="64" y="219" type="curve" smooth="yes"/>
      <point x="54" y="180" type="line"/>
      <point x="-3" y="180" type="line"/>
      <point x="-3" y="0" type="line"/>
      <point x="15" y="0" type="line"/>
      <point x="25" y="2" type="line"/>
      <point x="30" y="5"/>
      <point x="34" y="9"/>
      <point x="38" y="15" type="curve"/>
      <point x="41" y="20"/>
      <point x="47" y="38"/>
      <point x="55" y="67" type="curve"/>
      <point x="58" y="76"/>
      <point x="62" y="82"/>
      <point x="67" y="83" type="curve"/>
      <point x="169" y="0" type="line"/>
      <point x="208" y="-30" type="line" smooth="yes"/>
      <point x="219" y="-38"/>
      <point x="229" y="-44"/>
      <point x="236" y="-47" type="curve"/>
      <point x="245" y="-37" type="line"/>
      <point x="247" y="-35"/>
      <point x="249" y="-31"/>
      <point x="250" y="-26" type="curve"/>
      <point x="253" y="-19"/>
      <point x="257" y="-11"/>
      <point x="260" y="0" type="curve"/>
      <point x="336" y="0" type="line"/>
      <point x="345" y="0" type="line"/>
      <point x="348" y="3" type="line"/>
      <point x="351" y="9" type="line" smooth="yes"/>
      <point x="360" y="26"/>
      <point x="365" y="38"/>
      <point x="367" y="45" type="curve"/>
      <point x="386" y="102" type="line"/>
      <point x="430" y="72" type="line"/>
      <point x="445" y="62" type="line"/>
      <point x="471" y="46" type="line"/>
      <point x="502" y="27" type="line"/>
      <point x="513" y="21" type="line"/>
      <point x="531" y="14" type="line"/>
      <point x="543" y="34"/>
      <point x="555" y="60"/>
      <point x="567" y="92" type="curve" smooth="yes"/>
      <point x="575" y="112" type="line"/>
      <point x="581" y="130" type="line"/>
      <point x="589" y="151"/>
      <point x="593" y="175"/>
      <point x="593" y="186" type="curve"/>
      <point x="592" y="200" type="line"/>
    </contour>
    <contour>
      <point x="452" y="240" type="line"/>
      <point x="458" y="248" type="line"/>
      <point x="461" y="253"/>
      <point x="473" y="261"/>
      <point x="485" y="261" type="curve" smooth="yes"/>
      <point x="489" y="261"/>
      <point x="492" y="260"/>
      <point x="495" y="258" type="curve"/>
      <point x="500" y="254"/>
      <point x="503" y="246"/>
      <point x="506" y="235" type="curve"/>
      <point x="509" y="226" type="line"/>
      <point x="510" y="225"/>
      <point x="510" y="222"/>
      <point x="510" y="217" type="curve"/>
      <point x="511" y="208" type="line"/>
      <point x="511" y="202" type="line"/>
      <point x="487" y="217" type="line"/>
    </contour>
    <contour>
      <point x="133" y="216" type="line"/>
      <point x="140" y="229"/>
      <point x="153" y="238"/>
      <point x="165" y="238" type="curve" smooth="yes"/>
      <point x="168" y="238"/>
      <point x="171" y="237"/>
      <point x="174" y="235" type="curve"/>
      <point x="179" y="231"/>
      <point x="183" y="223"/>
      <point x="186" y="211" type="curve"/>
      <point x="189" y="202" type="line"/>
      <point x="190" y="201"/>
      <point x="190" y="198"/>
      <point x="190" y="194" type="curve"/>
      <point x="191" y="185" type="line"/>
      <point x="191" y="178" type="line"/>
      <point x="167" y="193" type="line"/>
    </contour>
  </outline>
</glyph>
<glyph name="legSM.init" format="1">
  <advance width="796"/>
  <note>
    arSM.init
  </note>
  <outline>
    <contour>
      <point x="712" y="192" type="line"/>
      <point x="712" y="200" type="line"/>
      <point x="712" y="208" type="line"/>
      <point x="712" y="219" type="line"/>
      <point x="711" y="303" type="line"/>
      <point x="711" y="316"/>
      <point x="711" y="326"/>
      <point x="710" y="333" type="curve" smooth="yes"/>
      <point x="709" y="340"/>
      <point x="708" y="344"/>
      <point x="707" y="345" type="curve"/>
      <point x="698" y="342"/>
      <point x="685" y="326"/>
      <point x="668" y="297" type="curve" smooth="yes"/>
      <point x="637" y="242" type="line"/>
      <point x="637" y="226" type="line"/>
      <point x="638" y="204" type="line"/>
      <point x="636" y="180" type="line"/>
      <point x="582" y="180" type="line"/>
      <point x="582" y="199"/>
      <point x="584" y="220"/>
      <point x="587" y="245" type="curve"/>
      <point x="600" y="322" type="line"/>
      <point x="599" y="327" type="line"/>
      <point x="589" y="325"/>
      <point x="577" y="312"/>
      <point x="562" y="289" type="curve"/>
      <point x="551" y="269" type="line"/>
      <point x="529" y="228" type="line"/>
      <point x="525" y="180" type="line"/>
      <point x="442" y="180" type="line"/>
      <point x="442" y="187" type="line"/>
      <point x="442" y="201" type="line"/>
      <point x="444" y="213" type="line"/>
      <point x="457" y="267" type="line"/>
      <point x="462" y="279"/>
      <point x="464" y="285"/>
      <point x="466" y="298" type="curve" smooth="yes"/>
      <point x="467" y="304"/>
      <point x="467" y="313"/>
      <point x="467" y="325" type="curve" smooth="yes"/>
      <point x="467" y="333"/>
      <point x="464" y="338"/>
      <point x="459" y="340" type="curve"/>
      <point x="449" y="332"/>
      <point x="436" y="317"/>
      <point x="421" y="294" type="curve" smooth="yes"/>
      <point x="399" y="262" type="line"/>
      <point x="391" y="250" type="line"/>
      <point x="388" y="243" type="line"/>
      <point x="383" y="212" type="line"/>
      <point x="377" y="180" type="line"/>
      <point x="324" y="180" type="line"/>
      <point x="302" y="180" type="line"/>
      <point x="285" y="195"/>
      <point x="272" y="214"/>
      <point x="261" y="237" type="curve" smooth="yes"/>
      <point x="252" y="257" type="line"/>
      <point x="249" y="267" type="line"/>
      <point x="247" y="277" type="line"/>
      <point x="244" y="296"/>
      <point x="242" y="310"/>
      <point x="242" y="321" type="curve"/>
      <point x="243" y="336" type="line"/>
      <point x="242" y="345"/>
      <point x="228" y="355"/>
      <point x="217" y="355" type="curve" smooth="yes"/>
      <point x="211" y="355"/>
      <point x="205" y="354"/>
      <point x="198" y="353" type="curve"/>
      <point x="185" y="349" type="line" smooth="yes"/>
      <point x="173" y="345"/>
      <point x="161" y="340"/>
      <point x="150" y="333" type="curve" smooth="yes"/>
      <point x="99" y="301"/>
      <point x="73" y="250"/>
      <point x="64" y="219" type="curve" smooth="yes"/>
      <point x="54" y="180" type="line"/>
      <point x="-3" y="180" type="line"/>
      <point x="-3" y="0" type="line"/>
      <point x="15" y="0" type="line"/>
      <point x="25" y="2" type="line"/>
      <point x="30" y="5"/>
      <point x="34" y="9"/>
      <point x="38" y="15" type="curve"/>
      <point x="41" y="20"/>
      <point x="47" y="38"/>
      <point x="55" y="67" type="curve"/>
      <point x="58" y="76"/>
      <point x="62" y="82"/>
      <point x="67" y="83" type="curve"/>
      <point x="169" y="0" type="line"/>
      <point x="208" y="-30" type="line" smooth="yes"/>
      <point x="219" y="-38"/>
      <point x="229" y="-44"/>
      <point x="236" y="-47" type="curve"/>
      <point x="245" y="-37" type="line"/>
      <point x="247" y="-35"/>
      <point x="249" y="-31"/>
      <point x="250" y="-26" type="curve"/>
      <point x="253" y="-19"/>
      <point x="257" y="-11"/>
      <point x="260" y="0" type="curve"/>
      <point x="324" y="0" type="line"/>
      <point x="369" y="0" type="line"/>
      <point x="392" y="22" type="line"/>
      <point x="393" y="7" type="line"/>
      <point x="398" y="1" type="line"/>
      <point x="400" y="0" type="line"/>
      <point x="505" y="0" type="line" smooth="yes"/>
      <point x="510" y="0"/>
      <point x="514" y="2"/>
      <point x="517" y="6" type="curve"/>
      <point x="527" y="21" type="line"/>
      <point x="543" y="3" type="line"/>
      <point x="546" y="1"/>
      <point x="549" y="0"/>
      <point x="552" y="0" type="curve" smooth="yes"/>
      <point x="660" y="0" type="line"/>
      <point x="672" y="1"/>
      <point x="681" y="15"/>
      <point x="685" y="30" type="curve" smooth="yes"/>
      <point x="701" y="94" type="line"/>
      <point x="705" y="110" type="line"/>
      <point x="708" y="130" type="line"/>
      <point x="709" y="135"/>
      <point x="710" y="140"/>
      <point x="710" y="144" type="curve"/>
      <point x="711" y="156" type="line"/>
      <point x="712" y="161"/>
      <point x="712" y="169"/>
      <point x="712" y="181" type="curve" smooth="yes"/>
      <point x="712" y="186" type="line"/>
    </contour>
    <contour>
      <point x="133" y="216" type="line"/>
      <point x="140" y="229"/>
      <point x="153" y="238"/>
      <point x="165" y="238" type="curve" smooth="yes"/>
      <point x="168" y="238"/>
      <point x="171" y="237"/>
      <point x="174" y="235" type="curve"/>
      <point x="179" y="231"/>
      <point x="183" y="223"/>
      <point x="186" y="211" type="curve"/>
      <point x="189" y="202" type="line"/>
      <point x="190" y="201"/>
      <point x="190" y="198"/>
      <point x="190" y="194" type="curve"/>
      <point x="191" y="185" type="line"/>
      <point x="191" y="178" type="line"/>
      <point x="167" y="193" type="line"/>
    </contour>
  </outline>
</glyph>
